M48
; DRILL file {KiCad 8.0.7} date 2024-12-31T21:00:18-0500
; FORMAT={-:-/ absolute / metric / decimal}
; #@! TF.CreationDate,2024-12-31T21:00:18-05:00
; #@! TF.GenerationSoftware,Kicad,Pcbnew,8.0.7
; #@! TF.FileFunction,Plated,1,2,PTH
FMAT,2
METRIC
; #@! TA.AperFunction,Plated,PTH,ViaDrill
T1C0.400
; #@! TA.AperFunction,Plated,PTH,ComponentDrill
T2C0.890
; #@! TA.AperFunction,Plated,PTH,ComponentDrill
T3C0.900
; #@! TA.AperFunction,Plated,PTH,ComponentDrill
T4C1.000
; #@! TA.AperFunction,Plated,PTH,ComponentDrill
T5C2.000
; #@! TA.AperFunction,Plated,PTH,ComponentDrill
T6C2.010
; #@! TA.AperFunction,Plated,PTH,ComponentDrill
T7C6.100
%
G90
G05
T1
X29.5Y-24.0
X30.0Y-50.5
X42.5Y-56.5
X48.5Y-23.0
X55.0Y-82.5
X60.5Y-25.0
X60.5Y-33.0
X63.5Y-25.0
X63.5Y-33.0
X67.5Y-75.0
X82.0Y-73.5
X94.439Y-49.939
T2
X21.082Y-69.21
X23.622Y-69.21
X23.622Y-71.75
X26.162Y-69.21
X98.46Y-68.95
X101.0Y-68.95
X101.0Y-71.49
X103.54Y-68.95
T3
X27.46Y-34.5
X30.0Y-34.5
X95.46Y-35.0
X98.0Y-35.0
T4
X27.225Y-48.0
X29.765Y-48.0
X30.46Y-55.96
X30.46Y-58.5
X33.0Y-55.96
X33.0Y-58.5
X35.54Y-55.96
X35.54Y-58.5
X36.5Y-84.089
X36.5Y-86.629
X36.5Y-89.169
X39.04Y-84.089
X39.04Y-86.629
X39.04Y-89.169
X42.418Y-15.748
X42.418Y-18.288
X44.958Y-15.748
X44.958Y-18.288
X47.498Y-15.748
X47.498Y-18.288
X48.509Y-84.089
X48.509Y-86.629
X48.509Y-89.169
X50.038Y-15.748
X50.038Y-18.288
X51.049Y-84.089
X51.049Y-86.629
X51.049Y-89.169
X52.578Y-15.748
X52.578Y-18.288
X55.118Y-15.748
X55.118Y-18.288
X57.658Y-15.748
X57.658Y-18.288
X60.198Y-15.748
X60.198Y-18.288
X60.98Y-35.829
X60.98Y-38.369
X60.98Y-40.909
X60.98Y-83.969
X60.98Y-86.509
X60.98Y-89.049
X61.235Y-73.725
X61.235Y-76.265
X62.738Y-15.748
X62.738Y-18.288
X63.52Y-35.829
X63.52Y-38.369
X63.52Y-40.909
X63.52Y-83.969
X63.52Y-86.509
X63.52Y-89.049
X63.775Y-73.725
X63.775Y-76.265
X65.278Y-15.748
X65.278Y-18.288
X67.818Y-15.748
X67.818Y-18.288
X70.358Y-15.748
X70.358Y-18.288
X72.898Y-15.748
X72.898Y-18.288
X73.406Y-84.074
X73.406Y-86.614
X73.406Y-89.154
X75.438Y-15.748
X75.438Y-18.288
X75.946Y-84.074
X75.946Y-86.614
X75.946Y-89.154
X77.978Y-15.748
X77.978Y-18.288
X84.577Y-84.089
X84.577Y-86.629
X84.577Y-89.169
X87.117Y-84.089
X87.117Y-86.629
X87.117Y-89.169
X87.759Y-56.178
X87.759Y-58.718
X90.299Y-56.178
X90.299Y-58.718
X91.899Y-47.698
X92.839Y-56.178
X92.839Y-58.718
X94.439Y-47.698
T5
X22.38Y-39.58
X32.54Y-29.42
X90.38Y-40.08
X100.54Y-29.92
T6
X18.542Y-78.0
X28.702Y-78.1
X95.92Y-77.74
X106.08Y-77.84
T7
X48.514Y-52.324
X48.768Y-67.564
X76.2Y-52.578
X76.2Y-67.564
M30
