%TF.GenerationSoftware,KiCad,Pcbnew,8.0.7*%
%TF.CreationDate,2024-12-31T21:00:06-05:00*%
%TF.ProjectId,Digilent_AD_Breakout,44696769-6c65-46e7-945f-41445f427265,rev?*%
%TF.SameCoordinates,Original*%
%TF.FileFunction,Legend,Top*%
%TF.FilePolarity,Positive*%
%FSLAX46Y46*%
G04 Gerber Fmt 4.6, Leading zero omitted, Abs format (unit mm)*
G04 Created by KiCad (PCBNEW 8.0.7) date 2024-12-31 21:00:06*
%MOMM*%
%LPD*%
G01*
G04 APERTURE LIST*
G04 Aperture macros list*
%AMRoundRect*
0 Rectangle with rounded corners*
0 $1 Rounding radius*
0 $2 $3 $4 $5 $6 $7 $8 $9 X,Y pos of 4 corners*
0 Add a 4 corners polygon primitive as box body*
4,1,4,$2,$3,$4,$5,$6,$7,$8,$9,$2,$3,0*
0 Add four circle primitives for the rounded corners*
1,1,$1+$1,$2,$3*
1,1,$1+$1,$4,$5*
1,1,$1+$1,$6,$7*
1,1,$1+$1,$8,$9*
0 Add four rect primitives between the rounded corners*
20,1,$1+$1,$2,$3,$4,$5,0*
20,1,$1+$1,$4,$5,$6,$7,0*
20,1,$1+$1,$6,$7,$8,$9,0*
20,1,$1+$1,$8,$9,$2,$3,0*%
G04 Aperture macros list end*
%ADD10C,0.150000*%
%ADD11C,0.120000*%
%ADD12C,4.400464*%
%ADD13C,3.980125*%
%ADD14RoundRect,0.250000X0.450000X-0.262500X0.450000X0.262500X-0.450000X0.262500X-0.450000X-0.262500X0*%
%ADD15R,1.700000X1.700000*%
%ADD16O,1.700000X1.700000*%
%ADD17C,10.160000*%
%ADD18C,1.600000*%
%ADD19RoundRect,0.400000X0.400000X0.400000X-0.400000X0.400000X-0.400000X-0.400000X0.400000X-0.400000X0*%
%ADD20O,3.500000X7.000000*%
%ADD21C,4.000000*%
%ADD22RoundRect,0.250000X0.250000X0.475000X-0.250000X0.475000X-0.250000X-0.475000X0.250000X-0.475000X0*%
%ADD23RoundRect,0.250000X-0.450000X0.262500X-0.450000X-0.262500X0.450000X-0.262500X0.450000X0.262500X0*%
G04 APERTURE END LIST*
D10*
X90217731Y-75556961D02*
X90122493Y-75652200D01*
X90122493Y-75652200D02*
X89836779Y-75747438D01*
X89836779Y-75747438D02*
X89646303Y-75747438D01*
X89646303Y-75747438D02*
X89360588Y-75652200D01*
X89360588Y-75652200D02*
X89170112Y-75461723D01*
X89170112Y-75461723D02*
X89074874Y-75271247D01*
X89074874Y-75271247D02*
X88979636Y-74890295D01*
X88979636Y-74890295D02*
X88979636Y-74604580D01*
X88979636Y-74604580D02*
X89074874Y-74223628D01*
X89074874Y-74223628D02*
X89170112Y-74033152D01*
X89170112Y-74033152D02*
X89360588Y-73842676D01*
X89360588Y-73842676D02*
X89646303Y-73747438D01*
X89646303Y-73747438D02*
X89836779Y-73747438D01*
X89836779Y-73747438D02*
X90122493Y-73842676D01*
X90122493Y-73842676D02*
X90217731Y-73937914D01*
X90979636Y-73937914D02*
X91074874Y-73842676D01*
X91074874Y-73842676D02*
X91265350Y-73747438D01*
X91265350Y-73747438D02*
X91741541Y-73747438D01*
X91741541Y-73747438D02*
X91932017Y-73842676D01*
X91932017Y-73842676D02*
X92027255Y-73937914D01*
X92027255Y-73937914D02*
X92122493Y-74128390D01*
X92122493Y-74128390D02*
X92122493Y-74318866D01*
X92122493Y-74318866D02*
X92027255Y-74604580D01*
X92027255Y-74604580D02*
X90884398Y-75747438D01*
X90884398Y-75747438D02*
X92122493Y-75747438D01*
X34217731Y-75556961D02*
X34122493Y-75652200D01*
X34122493Y-75652200D02*
X33836779Y-75747438D01*
X33836779Y-75747438D02*
X33646303Y-75747438D01*
X33646303Y-75747438D02*
X33360588Y-75652200D01*
X33360588Y-75652200D02*
X33170112Y-75461723D01*
X33170112Y-75461723D02*
X33074874Y-75271247D01*
X33074874Y-75271247D02*
X32979636Y-74890295D01*
X32979636Y-74890295D02*
X32979636Y-74604580D01*
X32979636Y-74604580D02*
X33074874Y-74223628D01*
X33074874Y-74223628D02*
X33170112Y-74033152D01*
X33170112Y-74033152D02*
X33360588Y-73842676D01*
X33360588Y-73842676D02*
X33646303Y-73747438D01*
X33646303Y-73747438D02*
X33836779Y-73747438D01*
X33836779Y-73747438D02*
X34122493Y-73842676D01*
X34122493Y-73842676D02*
X34217731Y-73937914D01*
X36122493Y-75747438D02*
X34979636Y-75747438D01*
X35551064Y-75747438D02*
X35551064Y-73747438D01*
X35551064Y-73747438D02*
X35360588Y-74033152D01*
X35360588Y-74033152D02*
X35170112Y-74223628D01*
X35170112Y-74223628D02*
X34979636Y-74318866D01*
X86884398Y-20247438D02*
X87360588Y-22247438D01*
X87360588Y-22247438D02*
X87741541Y-20818866D01*
X87741541Y-20818866D02*
X88122493Y-22247438D01*
X88122493Y-22247438D02*
X88598684Y-20247438D01*
X90217731Y-22247438D02*
X90217731Y-21199819D01*
X90217731Y-21199819D02*
X90122493Y-21009342D01*
X90122493Y-21009342D02*
X89932017Y-20914104D01*
X89932017Y-20914104D02*
X89551064Y-20914104D01*
X89551064Y-20914104D02*
X89360588Y-21009342D01*
X90217731Y-22152200D02*
X90027255Y-22247438D01*
X90027255Y-22247438D02*
X89551064Y-22247438D01*
X89551064Y-22247438D02*
X89360588Y-22152200D01*
X89360588Y-22152200D02*
X89265350Y-21961723D01*
X89265350Y-21961723D02*
X89265350Y-21771247D01*
X89265350Y-21771247D02*
X89360588Y-21580771D01*
X89360588Y-21580771D02*
X89551064Y-21485533D01*
X89551064Y-21485533D02*
X90027255Y-21485533D01*
X90027255Y-21485533D02*
X90217731Y-21390295D01*
X90979636Y-20914104D02*
X91455826Y-22247438D01*
X91455826Y-22247438D02*
X91932017Y-20914104D01*
X93455827Y-22152200D02*
X93265351Y-22247438D01*
X93265351Y-22247438D02*
X92884398Y-22247438D01*
X92884398Y-22247438D02*
X92693922Y-22152200D01*
X92693922Y-22152200D02*
X92598684Y-21961723D01*
X92598684Y-21961723D02*
X92598684Y-21199819D01*
X92598684Y-21199819D02*
X92693922Y-21009342D01*
X92693922Y-21009342D02*
X92884398Y-20914104D01*
X92884398Y-20914104D02*
X93265351Y-20914104D01*
X93265351Y-20914104D02*
X93455827Y-21009342D01*
X93455827Y-21009342D02*
X93551065Y-21199819D01*
X93551065Y-21199819D02*
X93551065Y-21390295D01*
X93551065Y-21390295D02*
X92598684Y-21580771D01*
X95265351Y-20914104D02*
X95265351Y-22533152D01*
X95265351Y-22533152D02*
X95170113Y-22723628D01*
X95170113Y-22723628D02*
X95074875Y-22818866D01*
X95074875Y-22818866D02*
X94884398Y-22914104D01*
X94884398Y-22914104D02*
X94598684Y-22914104D01*
X94598684Y-22914104D02*
X94408208Y-22818866D01*
X95265351Y-22152200D02*
X95074875Y-22247438D01*
X95074875Y-22247438D02*
X94693922Y-22247438D01*
X94693922Y-22247438D02*
X94503446Y-22152200D01*
X94503446Y-22152200D02*
X94408208Y-22056961D01*
X94408208Y-22056961D02*
X94312970Y-21866485D01*
X94312970Y-21866485D02*
X94312970Y-21295057D01*
X94312970Y-21295057D02*
X94408208Y-21104580D01*
X94408208Y-21104580D02*
X94503446Y-21009342D01*
X94503446Y-21009342D02*
X94693922Y-20914104D01*
X94693922Y-20914104D02*
X95074875Y-20914104D01*
X95074875Y-20914104D02*
X95265351Y-21009342D01*
X96979637Y-22152200D02*
X96789161Y-22247438D01*
X96789161Y-22247438D02*
X96408208Y-22247438D01*
X96408208Y-22247438D02*
X96217732Y-22152200D01*
X96217732Y-22152200D02*
X96122494Y-21961723D01*
X96122494Y-21961723D02*
X96122494Y-21199819D01*
X96122494Y-21199819D02*
X96217732Y-21009342D01*
X96217732Y-21009342D02*
X96408208Y-20914104D01*
X96408208Y-20914104D02*
X96789161Y-20914104D01*
X96789161Y-20914104D02*
X96979637Y-21009342D01*
X96979637Y-21009342D02*
X97074875Y-21199819D01*
X97074875Y-21199819D02*
X97074875Y-21390295D01*
X97074875Y-21390295D02*
X96122494Y-21580771D01*
X97932018Y-20914104D02*
X97932018Y-22247438D01*
X97932018Y-21104580D02*
X98027256Y-21009342D01*
X98027256Y-21009342D02*
X98217732Y-20914104D01*
X98217732Y-20914104D02*
X98503447Y-20914104D01*
X98503447Y-20914104D02*
X98693923Y-21009342D01*
X98693923Y-21009342D02*
X98789161Y-21199819D01*
X98789161Y-21199819D02*
X98789161Y-22247438D01*
X101170114Y-20437914D02*
X101265352Y-20342676D01*
X101265352Y-20342676D02*
X101455828Y-20247438D01*
X101455828Y-20247438D02*
X101932019Y-20247438D01*
X101932019Y-20247438D02*
X102122495Y-20342676D01*
X102122495Y-20342676D02*
X102217733Y-20437914D01*
X102217733Y-20437914D02*
X102312971Y-20628390D01*
X102312971Y-20628390D02*
X102312971Y-20818866D01*
X102312971Y-20818866D02*
X102217733Y-21104580D01*
X102217733Y-21104580D02*
X101074876Y-22247438D01*
X101074876Y-22247438D02*
X102312971Y-22247438D01*
X21884398Y-20247438D02*
X22360588Y-22247438D01*
X22360588Y-22247438D02*
X22741541Y-20818866D01*
X22741541Y-20818866D02*
X23122493Y-22247438D01*
X23122493Y-22247438D02*
X23598684Y-20247438D01*
X25217731Y-22247438D02*
X25217731Y-21199819D01*
X25217731Y-21199819D02*
X25122493Y-21009342D01*
X25122493Y-21009342D02*
X24932017Y-20914104D01*
X24932017Y-20914104D02*
X24551064Y-20914104D01*
X24551064Y-20914104D02*
X24360588Y-21009342D01*
X25217731Y-22152200D02*
X25027255Y-22247438D01*
X25027255Y-22247438D02*
X24551064Y-22247438D01*
X24551064Y-22247438D02*
X24360588Y-22152200D01*
X24360588Y-22152200D02*
X24265350Y-21961723D01*
X24265350Y-21961723D02*
X24265350Y-21771247D01*
X24265350Y-21771247D02*
X24360588Y-21580771D01*
X24360588Y-21580771D02*
X24551064Y-21485533D01*
X24551064Y-21485533D02*
X25027255Y-21485533D01*
X25027255Y-21485533D02*
X25217731Y-21390295D01*
X25979636Y-20914104D02*
X26455826Y-22247438D01*
X26455826Y-22247438D02*
X26932017Y-20914104D01*
X28455827Y-22152200D02*
X28265351Y-22247438D01*
X28265351Y-22247438D02*
X27884398Y-22247438D01*
X27884398Y-22247438D02*
X27693922Y-22152200D01*
X27693922Y-22152200D02*
X27598684Y-21961723D01*
X27598684Y-21961723D02*
X27598684Y-21199819D01*
X27598684Y-21199819D02*
X27693922Y-21009342D01*
X27693922Y-21009342D02*
X27884398Y-20914104D01*
X27884398Y-20914104D02*
X28265351Y-20914104D01*
X28265351Y-20914104D02*
X28455827Y-21009342D01*
X28455827Y-21009342D02*
X28551065Y-21199819D01*
X28551065Y-21199819D02*
X28551065Y-21390295D01*
X28551065Y-21390295D02*
X27598684Y-21580771D01*
X30265351Y-20914104D02*
X30265351Y-22533152D01*
X30265351Y-22533152D02*
X30170113Y-22723628D01*
X30170113Y-22723628D02*
X30074875Y-22818866D01*
X30074875Y-22818866D02*
X29884398Y-22914104D01*
X29884398Y-22914104D02*
X29598684Y-22914104D01*
X29598684Y-22914104D02*
X29408208Y-22818866D01*
X30265351Y-22152200D02*
X30074875Y-22247438D01*
X30074875Y-22247438D02*
X29693922Y-22247438D01*
X29693922Y-22247438D02*
X29503446Y-22152200D01*
X29503446Y-22152200D02*
X29408208Y-22056961D01*
X29408208Y-22056961D02*
X29312970Y-21866485D01*
X29312970Y-21866485D02*
X29312970Y-21295057D01*
X29312970Y-21295057D02*
X29408208Y-21104580D01*
X29408208Y-21104580D02*
X29503446Y-21009342D01*
X29503446Y-21009342D02*
X29693922Y-20914104D01*
X29693922Y-20914104D02*
X30074875Y-20914104D01*
X30074875Y-20914104D02*
X30265351Y-21009342D01*
X31979637Y-22152200D02*
X31789161Y-22247438D01*
X31789161Y-22247438D02*
X31408208Y-22247438D01*
X31408208Y-22247438D02*
X31217732Y-22152200D01*
X31217732Y-22152200D02*
X31122494Y-21961723D01*
X31122494Y-21961723D02*
X31122494Y-21199819D01*
X31122494Y-21199819D02*
X31217732Y-21009342D01*
X31217732Y-21009342D02*
X31408208Y-20914104D01*
X31408208Y-20914104D02*
X31789161Y-20914104D01*
X31789161Y-20914104D02*
X31979637Y-21009342D01*
X31979637Y-21009342D02*
X32074875Y-21199819D01*
X32074875Y-21199819D02*
X32074875Y-21390295D01*
X32074875Y-21390295D02*
X31122494Y-21580771D01*
X32932018Y-20914104D02*
X32932018Y-22247438D01*
X32932018Y-21104580D02*
X33027256Y-21009342D01*
X33027256Y-21009342D02*
X33217732Y-20914104D01*
X33217732Y-20914104D02*
X33503447Y-20914104D01*
X33503447Y-20914104D02*
X33693923Y-21009342D01*
X33693923Y-21009342D02*
X33789161Y-21199819D01*
X33789161Y-21199819D02*
X33789161Y-22247438D01*
X37312971Y-22247438D02*
X36170114Y-22247438D01*
X36741542Y-22247438D02*
X36741542Y-20247438D01*
X36741542Y-20247438D02*
X36551066Y-20533152D01*
X36551066Y-20533152D02*
X36360590Y-20723628D01*
X36360590Y-20723628D02*
X36170114Y-20818866D01*
X18480000Y-51000000D02*
G75*
G02*
X17480000Y-50000000I0J1000000D01*
G01*
X38980000Y-50000000D02*
G75*
G02*
X37980000Y-51000000I-1000000J0D01*
G01*
X17480000Y-24500000D02*
G75*
G02*
X18480000Y-23500000I1000000J0D01*
G01*
X37980000Y-23500000D02*
G75*
G02*
X38980000Y-24500000I0J-1000000D01*
G01*
X17480000Y-50000000D02*
X17480000Y-24500000D01*
X38980000Y-24500000D02*
X38980000Y-50000000D01*
X37980000Y-51000000D02*
X18480000Y-51000000D01*
X18480000Y-23500000D02*
X37980000Y-23500000D01*
X85000000Y-24500000D02*
G75*
G02*
X86000000Y-23500000I1000000J0D01*
G01*
X105500000Y-23500000D02*
G75*
G02*
X106500000Y-24500000I0J-1000000D01*
G01*
X86000000Y-51000000D02*
G75*
G02*
X85000000Y-50000000I0J1000000D01*
G01*
X106500000Y-50000000D02*
G75*
G02*
X105500000Y-51000000I-1000000J0D01*
G01*
X85000000Y-50000000D02*
X85000000Y-24500000D01*
X86000000Y-23500000D02*
X105500000Y-23500000D01*
X106500000Y-24500000D02*
X106500000Y-50000000D01*
X105500000Y-51000000D02*
X86000000Y-51000000D01*
X71074874Y-44747438D02*
X71074874Y-42747438D01*
X71074874Y-42747438D02*
X71836779Y-42747438D01*
X71836779Y-42747438D02*
X72027255Y-42842676D01*
X72027255Y-42842676D02*
X72122493Y-42937914D01*
X72122493Y-42937914D02*
X72217731Y-43128390D01*
X72217731Y-43128390D02*
X72217731Y-43414104D01*
X72217731Y-43414104D02*
X72122493Y-43604580D01*
X72122493Y-43604580D02*
X72027255Y-43699819D01*
X72027255Y-43699819D02*
X71836779Y-43795057D01*
X71836779Y-43795057D02*
X71074874Y-43795057D01*
X73360588Y-44747438D02*
X73170112Y-44652200D01*
X73170112Y-44652200D02*
X73074874Y-44556961D01*
X73074874Y-44556961D02*
X72979636Y-44366485D01*
X72979636Y-44366485D02*
X72979636Y-43795057D01*
X72979636Y-43795057D02*
X73074874Y-43604580D01*
X73074874Y-43604580D02*
X73170112Y-43509342D01*
X73170112Y-43509342D02*
X73360588Y-43414104D01*
X73360588Y-43414104D02*
X73646303Y-43414104D01*
X73646303Y-43414104D02*
X73836779Y-43509342D01*
X73836779Y-43509342D02*
X73932017Y-43604580D01*
X73932017Y-43604580D02*
X74027255Y-43795057D01*
X74027255Y-43795057D02*
X74027255Y-44366485D01*
X74027255Y-44366485D02*
X73932017Y-44556961D01*
X73932017Y-44556961D02*
X73836779Y-44652200D01*
X73836779Y-44652200D02*
X73646303Y-44747438D01*
X73646303Y-44747438D02*
X73360588Y-44747438D01*
X74693922Y-43414104D02*
X75074874Y-44747438D01*
X75074874Y-44747438D02*
X75455827Y-43795057D01*
X75455827Y-43795057D02*
X75836779Y-44747438D01*
X75836779Y-44747438D02*
X76217731Y-43414104D01*
X77741541Y-44652200D02*
X77551065Y-44747438D01*
X77551065Y-44747438D02*
X77170112Y-44747438D01*
X77170112Y-44747438D02*
X76979636Y-44652200D01*
X76979636Y-44652200D02*
X76884398Y-44461723D01*
X76884398Y-44461723D02*
X76884398Y-43699819D01*
X76884398Y-43699819D02*
X76979636Y-43509342D01*
X76979636Y-43509342D02*
X77170112Y-43414104D01*
X77170112Y-43414104D02*
X77551065Y-43414104D01*
X77551065Y-43414104D02*
X77741541Y-43509342D01*
X77741541Y-43509342D02*
X77836779Y-43699819D01*
X77836779Y-43699819D02*
X77836779Y-43890295D01*
X77836779Y-43890295D02*
X76884398Y-44080771D01*
X78693922Y-44747438D02*
X78693922Y-43414104D01*
X78693922Y-43795057D02*
X78789160Y-43604580D01*
X78789160Y-43604580D02*
X78884398Y-43509342D01*
X78884398Y-43509342D02*
X79074874Y-43414104D01*
X79074874Y-43414104D02*
X79265351Y-43414104D01*
X81455827Y-43985533D02*
X82979637Y-43985533D01*
X43574874Y-44747438D02*
X43574874Y-42747438D01*
X43574874Y-42747438D02*
X44336779Y-42747438D01*
X44336779Y-42747438D02*
X44527255Y-42842676D01*
X44527255Y-42842676D02*
X44622493Y-42937914D01*
X44622493Y-42937914D02*
X44717731Y-43128390D01*
X44717731Y-43128390D02*
X44717731Y-43414104D01*
X44717731Y-43414104D02*
X44622493Y-43604580D01*
X44622493Y-43604580D02*
X44527255Y-43699819D01*
X44527255Y-43699819D02*
X44336779Y-43795057D01*
X44336779Y-43795057D02*
X43574874Y-43795057D01*
X45860588Y-44747438D02*
X45670112Y-44652200D01*
X45670112Y-44652200D02*
X45574874Y-44556961D01*
X45574874Y-44556961D02*
X45479636Y-44366485D01*
X45479636Y-44366485D02*
X45479636Y-43795057D01*
X45479636Y-43795057D02*
X45574874Y-43604580D01*
X45574874Y-43604580D02*
X45670112Y-43509342D01*
X45670112Y-43509342D02*
X45860588Y-43414104D01*
X45860588Y-43414104D02*
X46146303Y-43414104D01*
X46146303Y-43414104D02*
X46336779Y-43509342D01*
X46336779Y-43509342D02*
X46432017Y-43604580D01*
X46432017Y-43604580D02*
X46527255Y-43795057D01*
X46527255Y-43795057D02*
X46527255Y-44366485D01*
X46527255Y-44366485D02*
X46432017Y-44556961D01*
X46432017Y-44556961D02*
X46336779Y-44652200D01*
X46336779Y-44652200D02*
X46146303Y-44747438D01*
X46146303Y-44747438D02*
X45860588Y-44747438D01*
X47193922Y-43414104D02*
X47574874Y-44747438D01*
X47574874Y-44747438D02*
X47955827Y-43795057D01*
X47955827Y-43795057D02*
X48336779Y-44747438D01*
X48336779Y-44747438D02*
X48717731Y-43414104D01*
X50241541Y-44652200D02*
X50051065Y-44747438D01*
X50051065Y-44747438D02*
X49670112Y-44747438D01*
X49670112Y-44747438D02*
X49479636Y-44652200D01*
X49479636Y-44652200D02*
X49384398Y-44461723D01*
X49384398Y-44461723D02*
X49384398Y-43699819D01*
X49384398Y-43699819D02*
X49479636Y-43509342D01*
X49479636Y-43509342D02*
X49670112Y-43414104D01*
X49670112Y-43414104D02*
X50051065Y-43414104D01*
X50051065Y-43414104D02*
X50241541Y-43509342D01*
X50241541Y-43509342D02*
X50336779Y-43699819D01*
X50336779Y-43699819D02*
X50336779Y-43890295D01*
X50336779Y-43890295D02*
X49384398Y-44080771D01*
X51193922Y-44747438D02*
X51193922Y-43414104D01*
X51193922Y-43795057D02*
X51289160Y-43604580D01*
X51289160Y-43604580D02*
X51384398Y-43509342D01*
X51384398Y-43509342D02*
X51574874Y-43414104D01*
X51574874Y-43414104D02*
X51765351Y-43414104D01*
X53955827Y-43985533D02*
X55479637Y-43985533D01*
X54717732Y-44747438D02*
X54717732Y-43223628D01*
X90300000Y-61150000D02*
X90300000Y-53650000D01*
X92800000Y-58650000D02*
X92800000Y-61000000D01*
X92800000Y-61000000D02*
X94500000Y-61000000D01*
X87800000Y-61000000D02*
X86000000Y-61000000D01*
X87800000Y-58650000D02*
X87800000Y-61000000D01*
X87800000Y-56150000D02*
X87800000Y-54150000D01*
X92800000Y-54150000D02*
X93800000Y-54150000D01*
X92800000Y-56150000D02*
X92800000Y-54150000D01*
X87800000Y-54150000D02*
X86800000Y-54150000D01*
X84289160Y-61234104D02*
X84765350Y-61234104D01*
X84193922Y-61519819D02*
X84527255Y-60519819D01*
X84527255Y-60519819D02*
X84860588Y-61519819D01*
X85765350Y-61424580D02*
X85717731Y-61472200D01*
X85717731Y-61472200D02*
X85574874Y-61519819D01*
X85574874Y-61519819D02*
X85479636Y-61519819D01*
X85479636Y-61519819D02*
X85336779Y-61472200D01*
X85336779Y-61472200D02*
X85241541Y-61376961D01*
X85241541Y-61376961D02*
X85193922Y-61281723D01*
X85193922Y-61281723D02*
X85146303Y-61091247D01*
X85146303Y-61091247D02*
X85146303Y-60948390D01*
X85146303Y-60948390D02*
X85193922Y-60757914D01*
X85193922Y-60757914D02*
X85241541Y-60662676D01*
X85241541Y-60662676D02*
X85336779Y-60567438D01*
X85336779Y-60567438D02*
X85479636Y-60519819D01*
X85479636Y-60519819D02*
X85574874Y-60519819D01*
X85574874Y-60519819D02*
X85717731Y-60567438D01*
X85717731Y-60567438D02*
X85765350Y-60615057D01*
X94982969Y-53649819D02*
X94506779Y-53649819D01*
X94506779Y-53649819D02*
X94459160Y-54126009D01*
X94459160Y-54126009D02*
X94506779Y-54078390D01*
X94506779Y-54078390D02*
X94602017Y-54030771D01*
X94602017Y-54030771D02*
X94840112Y-54030771D01*
X94840112Y-54030771D02*
X94935350Y-54078390D01*
X94935350Y-54078390D02*
X94982969Y-54126009D01*
X94982969Y-54126009D02*
X95030588Y-54221247D01*
X95030588Y-54221247D02*
X95030588Y-54459342D01*
X95030588Y-54459342D02*
X94982969Y-54554580D01*
X94982969Y-54554580D02*
X94935350Y-54602200D01*
X94935350Y-54602200D02*
X94840112Y-54649819D01*
X94840112Y-54649819D02*
X94602017Y-54649819D01*
X94602017Y-54649819D02*
X94506779Y-54602200D01*
X94506779Y-54602200D02*
X94459160Y-54554580D01*
X95649636Y-53649819D02*
X95744874Y-53649819D01*
X95744874Y-53649819D02*
X95840112Y-53697438D01*
X95840112Y-53697438D02*
X95887731Y-53745057D01*
X95887731Y-53745057D02*
X95935350Y-53840295D01*
X95935350Y-53840295D02*
X95982969Y-54030771D01*
X95982969Y-54030771D02*
X95982969Y-54268866D01*
X95982969Y-54268866D02*
X95935350Y-54459342D01*
X95935350Y-54459342D02*
X95887731Y-54554580D01*
X95887731Y-54554580D02*
X95840112Y-54602200D01*
X95840112Y-54602200D02*
X95744874Y-54649819D01*
X95744874Y-54649819D02*
X95649636Y-54649819D01*
X95649636Y-54649819D02*
X95554398Y-54602200D01*
X95554398Y-54602200D02*
X95506779Y-54554580D01*
X95506779Y-54554580D02*
X95459160Y-54459342D01*
X95459160Y-54459342D02*
X95411541Y-54268866D01*
X95411541Y-54268866D02*
X95411541Y-54030771D01*
X95411541Y-54030771D02*
X95459160Y-53840295D01*
X95459160Y-53840295D02*
X95506779Y-53745057D01*
X95506779Y-53745057D02*
X95554398Y-53697438D01*
X95554398Y-53697438D02*
X95649636Y-53649819D01*
X96363922Y-54649819D02*
X96602017Y-54649819D01*
X96602017Y-54649819D02*
X96602017Y-54459342D01*
X96602017Y-54459342D02*
X96506779Y-54411723D01*
X96506779Y-54411723D02*
X96411541Y-54316485D01*
X96411541Y-54316485D02*
X96363922Y-54173628D01*
X96363922Y-54173628D02*
X96363922Y-53935533D01*
X96363922Y-53935533D02*
X96411541Y-53792676D01*
X96411541Y-53792676D02*
X96506779Y-53697438D01*
X96506779Y-53697438D02*
X96649636Y-53649819D01*
X96649636Y-53649819D02*
X96840112Y-53649819D01*
X96840112Y-53649819D02*
X96982969Y-53697438D01*
X96982969Y-53697438D02*
X97078207Y-53792676D01*
X97078207Y-53792676D02*
X97125826Y-53935533D01*
X97125826Y-53935533D02*
X97125826Y-54173628D01*
X97125826Y-54173628D02*
X97078207Y-54316485D01*
X97078207Y-54316485D02*
X96982969Y-54411723D01*
X96982969Y-54411723D02*
X96887731Y-54459342D01*
X96887731Y-54459342D02*
X96887731Y-54649819D01*
X96887731Y-54649819D02*
X97125826Y-54649819D01*
X90208207Y-52924580D02*
X90160588Y-52972200D01*
X90160588Y-52972200D02*
X90017731Y-53019819D01*
X90017731Y-53019819D02*
X89922493Y-53019819D01*
X89922493Y-53019819D02*
X89779636Y-52972200D01*
X89779636Y-52972200D02*
X89684398Y-52876961D01*
X89684398Y-52876961D02*
X89636779Y-52781723D01*
X89636779Y-52781723D02*
X89589160Y-52591247D01*
X89589160Y-52591247D02*
X89589160Y-52448390D01*
X89589160Y-52448390D02*
X89636779Y-52257914D01*
X89636779Y-52257914D02*
X89684398Y-52162676D01*
X89684398Y-52162676D02*
X89779636Y-52067438D01*
X89779636Y-52067438D02*
X89922493Y-52019819D01*
X89922493Y-52019819D02*
X90017731Y-52019819D01*
X90017731Y-52019819D02*
X90160588Y-52067438D01*
X90160588Y-52067438D02*
X90208207Y-52115057D01*
X91160588Y-53019819D02*
X90589160Y-53019819D01*
X90874874Y-53019819D02*
X90874874Y-52019819D01*
X90874874Y-52019819D02*
X90779636Y-52162676D01*
X90779636Y-52162676D02*
X90684398Y-52257914D01*
X90684398Y-52257914D02*
X90589160Y-52305533D01*
X94836779Y-61519819D02*
X94836779Y-60519819D01*
X94836779Y-60519819D02*
X95074874Y-60519819D01*
X95074874Y-60519819D02*
X95217731Y-60567438D01*
X95217731Y-60567438D02*
X95312969Y-60662676D01*
X95312969Y-60662676D02*
X95360588Y-60757914D01*
X95360588Y-60757914D02*
X95408207Y-60948390D01*
X95408207Y-60948390D02*
X95408207Y-61091247D01*
X95408207Y-61091247D02*
X95360588Y-61281723D01*
X95360588Y-61281723D02*
X95312969Y-61376961D01*
X95312969Y-61376961D02*
X95217731Y-61472200D01*
X95217731Y-61472200D02*
X95074874Y-61519819D01*
X95074874Y-61519819D02*
X94836779Y-61519819D01*
X96408207Y-61424580D02*
X96360588Y-61472200D01*
X96360588Y-61472200D02*
X96217731Y-61519819D01*
X96217731Y-61519819D02*
X96122493Y-61519819D01*
X96122493Y-61519819D02*
X95979636Y-61472200D01*
X95979636Y-61472200D02*
X95884398Y-61376961D01*
X95884398Y-61376961D02*
X95836779Y-61281723D01*
X95836779Y-61281723D02*
X95789160Y-61091247D01*
X95789160Y-61091247D02*
X95789160Y-60948390D01*
X95789160Y-60948390D02*
X95836779Y-60757914D01*
X95836779Y-60757914D02*
X95884398Y-60662676D01*
X95884398Y-60662676D02*
X95979636Y-60567438D01*
X95979636Y-60567438D02*
X96122493Y-60519819D01*
X96122493Y-60519819D02*
X96217731Y-60519819D01*
X96217731Y-60519819D02*
X96360588Y-60567438D01*
X96360588Y-60567438D02*
X96408207Y-60615057D01*
X84112969Y-53519819D02*
X83636779Y-53519819D01*
X83636779Y-53519819D02*
X83589160Y-53996009D01*
X83589160Y-53996009D02*
X83636779Y-53948390D01*
X83636779Y-53948390D02*
X83732017Y-53900771D01*
X83732017Y-53900771D02*
X83970112Y-53900771D01*
X83970112Y-53900771D02*
X84065350Y-53948390D01*
X84065350Y-53948390D02*
X84112969Y-53996009D01*
X84112969Y-53996009D02*
X84160588Y-54091247D01*
X84160588Y-54091247D02*
X84160588Y-54329342D01*
X84160588Y-54329342D02*
X84112969Y-54424580D01*
X84112969Y-54424580D02*
X84065350Y-54472200D01*
X84065350Y-54472200D02*
X83970112Y-54519819D01*
X83970112Y-54519819D02*
X83732017Y-54519819D01*
X83732017Y-54519819D02*
X83636779Y-54472200D01*
X83636779Y-54472200D02*
X83589160Y-54424580D01*
X84779636Y-53519819D02*
X84874874Y-53519819D01*
X84874874Y-53519819D02*
X84970112Y-53567438D01*
X84970112Y-53567438D02*
X85017731Y-53615057D01*
X85017731Y-53615057D02*
X85065350Y-53710295D01*
X85065350Y-53710295D02*
X85112969Y-53900771D01*
X85112969Y-53900771D02*
X85112969Y-54138866D01*
X85112969Y-54138866D02*
X85065350Y-54329342D01*
X85065350Y-54329342D02*
X85017731Y-54424580D01*
X85017731Y-54424580D02*
X84970112Y-54472200D01*
X84970112Y-54472200D02*
X84874874Y-54519819D01*
X84874874Y-54519819D02*
X84779636Y-54519819D01*
X84779636Y-54519819D02*
X84684398Y-54472200D01*
X84684398Y-54472200D02*
X84636779Y-54424580D01*
X84636779Y-54424580D02*
X84589160Y-54329342D01*
X84589160Y-54329342D02*
X84541541Y-54138866D01*
X84541541Y-54138866D02*
X84541541Y-53900771D01*
X84541541Y-53900771D02*
X84589160Y-53710295D01*
X84589160Y-53710295D02*
X84636779Y-53615057D01*
X84636779Y-53615057D02*
X84684398Y-53567438D01*
X84684398Y-53567438D02*
X84779636Y-53519819D01*
X85493922Y-54519819D02*
X85732017Y-54519819D01*
X85732017Y-54519819D02*
X85732017Y-54329342D01*
X85732017Y-54329342D02*
X85636779Y-54281723D01*
X85636779Y-54281723D02*
X85541541Y-54186485D01*
X85541541Y-54186485D02*
X85493922Y-54043628D01*
X85493922Y-54043628D02*
X85493922Y-53805533D01*
X85493922Y-53805533D02*
X85541541Y-53662676D01*
X85541541Y-53662676D02*
X85636779Y-53567438D01*
X85636779Y-53567438D02*
X85779636Y-53519819D01*
X85779636Y-53519819D02*
X85970112Y-53519819D01*
X85970112Y-53519819D02*
X86112969Y-53567438D01*
X86112969Y-53567438D02*
X86208207Y-53662676D01*
X86208207Y-53662676D02*
X86255826Y-53805533D01*
X86255826Y-53805533D02*
X86255826Y-54043628D01*
X86255826Y-54043628D02*
X86208207Y-54186485D01*
X86208207Y-54186485D02*
X86112969Y-54281723D01*
X86112969Y-54281723D02*
X86017731Y-54329342D01*
X86017731Y-54329342D02*
X86017731Y-54519819D01*
X86017731Y-54519819D02*
X86255826Y-54519819D01*
X26789160Y-61084104D02*
X27265350Y-61084104D01*
X26693922Y-61369819D02*
X27027255Y-60369819D01*
X27027255Y-60369819D02*
X27360588Y-61369819D01*
X28265350Y-61274580D02*
X28217731Y-61322200D01*
X28217731Y-61322200D02*
X28074874Y-61369819D01*
X28074874Y-61369819D02*
X27979636Y-61369819D01*
X27979636Y-61369819D02*
X27836779Y-61322200D01*
X27836779Y-61322200D02*
X27741541Y-61226961D01*
X27741541Y-61226961D02*
X27693922Y-61131723D01*
X27693922Y-61131723D02*
X27646303Y-60941247D01*
X27646303Y-60941247D02*
X27646303Y-60798390D01*
X27646303Y-60798390D02*
X27693922Y-60607914D01*
X27693922Y-60607914D02*
X27741541Y-60512676D01*
X27741541Y-60512676D02*
X27836779Y-60417438D01*
X27836779Y-60417438D02*
X27979636Y-60369819D01*
X27979636Y-60369819D02*
X28074874Y-60369819D01*
X28074874Y-60369819D02*
X28217731Y-60417438D01*
X28217731Y-60417438D02*
X28265350Y-60465057D01*
X37336779Y-61369819D02*
X37336779Y-60369819D01*
X37336779Y-60369819D02*
X37574874Y-60369819D01*
X37574874Y-60369819D02*
X37717731Y-60417438D01*
X37717731Y-60417438D02*
X37812969Y-60512676D01*
X37812969Y-60512676D02*
X37860588Y-60607914D01*
X37860588Y-60607914D02*
X37908207Y-60798390D01*
X37908207Y-60798390D02*
X37908207Y-60941247D01*
X37908207Y-60941247D02*
X37860588Y-61131723D01*
X37860588Y-61131723D02*
X37812969Y-61226961D01*
X37812969Y-61226961D02*
X37717731Y-61322200D01*
X37717731Y-61322200D02*
X37574874Y-61369819D01*
X37574874Y-61369819D02*
X37336779Y-61369819D01*
X38908207Y-61274580D02*
X38860588Y-61322200D01*
X38860588Y-61322200D02*
X38717731Y-61369819D01*
X38717731Y-61369819D02*
X38622493Y-61369819D01*
X38622493Y-61369819D02*
X38479636Y-61322200D01*
X38479636Y-61322200D02*
X38384398Y-61226961D01*
X38384398Y-61226961D02*
X38336779Y-61131723D01*
X38336779Y-61131723D02*
X38289160Y-60941247D01*
X38289160Y-60941247D02*
X38289160Y-60798390D01*
X38289160Y-60798390D02*
X38336779Y-60607914D01*
X38336779Y-60607914D02*
X38384398Y-60512676D01*
X38384398Y-60512676D02*
X38479636Y-60417438D01*
X38479636Y-60417438D02*
X38622493Y-60369819D01*
X38622493Y-60369819D02*
X38717731Y-60369819D01*
X38717731Y-60369819D02*
X38860588Y-60417438D01*
X38860588Y-60417438D02*
X38908207Y-60465057D01*
X35500000Y-61000000D02*
X37000000Y-61000000D01*
X35500000Y-58500000D02*
X35500000Y-61000000D01*
X30500000Y-61000000D02*
X28500000Y-61000000D01*
X30500000Y-58500000D02*
X30500000Y-61000000D01*
X30500000Y-54000000D02*
X29500000Y-54000000D01*
X30500000Y-56000000D02*
X30500000Y-54000000D01*
X35500000Y-54000000D02*
X36500000Y-54000000D01*
X35500000Y-56000000D02*
X35500000Y-54000000D01*
X26812969Y-53369819D02*
X26336779Y-53369819D01*
X26336779Y-53369819D02*
X26289160Y-53846009D01*
X26289160Y-53846009D02*
X26336779Y-53798390D01*
X26336779Y-53798390D02*
X26432017Y-53750771D01*
X26432017Y-53750771D02*
X26670112Y-53750771D01*
X26670112Y-53750771D02*
X26765350Y-53798390D01*
X26765350Y-53798390D02*
X26812969Y-53846009D01*
X26812969Y-53846009D02*
X26860588Y-53941247D01*
X26860588Y-53941247D02*
X26860588Y-54179342D01*
X26860588Y-54179342D02*
X26812969Y-54274580D01*
X26812969Y-54274580D02*
X26765350Y-54322200D01*
X26765350Y-54322200D02*
X26670112Y-54369819D01*
X26670112Y-54369819D02*
X26432017Y-54369819D01*
X26432017Y-54369819D02*
X26336779Y-54322200D01*
X26336779Y-54322200D02*
X26289160Y-54274580D01*
X27479636Y-53369819D02*
X27574874Y-53369819D01*
X27574874Y-53369819D02*
X27670112Y-53417438D01*
X27670112Y-53417438D02*
X27717731Y-53465057D01*
X27717731Y-53465057D02*
X27765350Y-53560295D01*
X27765350Y-53560295D02*
X27812969Y-53750771D01*
X27812969Y-53750771D02*
X27812969Y-53988866D01*
X27812969Y-53988866D02*
X27765350Y-54179342D01*
X27765350Y-54179342D02*
X27717731Y-54274580D01*
X27717731Y-54274580D02*
X27670112Y-54322200D01*
X27670112Y-54322200D02*
X27574874Y-54369819D01*
X27574874Y-54369819D02*
X27479636Y-54369819D01*
X27479636Y-54369819D02*
X27384398Y-54322200D01*
X27384398Y-54322200D02*
X27336779Y-54274580D01*
X27336779Y-54274580D02*
X27289160Y-54179342D01*
X27289160Y-54179342D02*
X27241541Y-53988866D01*
X27241541Y-53988866D02*
X27241541Y-53750771D01*
X27241541Y-53750771D02*
X27289160Y-53560295D01*
X27289160Y-53560295D02*
X27336779Y-53465057D01*
X27336779Y-53465057D02*
X27384398Y-53417438D01*
X27384398Y-53417438D02*
X27479636Y-53369819D01*
X28193922Y-54369819D02*
X28432017Y-54369819D01*
X28432017Y-54369819D02*
X28432017Y-54179342D01*
X28432017Y-54179342D02*
X28336779Y-54131723D01*
X28336779Y-54131723D02*
X28241541Y-54036485D01*
X28241541Y-54036485D02*
X28193922Y-53893628D01*
X28193922Y-53893628D02*
X28193922Y-53655533D01*
X28193922Y-53655533D02*
X28241541Y-53512676D01*
X28241541Y-53512676D02*
X28336779Y-53417438D01*
X28336779Y-53417438D02*
X28479636Y-53369819D01*
X28479636Y-53369819D02*
X28670112Y-53369819D01*
X28670112Y-53369819D02*
X28812969Y-53417438D01*
X28812969Y-53417438D02*
X28908207Y-53512676D01*
X28908207Y-53512676D02*
X28955826Y-53655533D01*
X28955826Y-53655533D02*
X28955826Y-53893628D01*
X28955826Y-53893628D02*
X28908207Y-54036485D01*
X28908207Y-54036485D02*
X28812969Y-54131723D01*
X28812969Y-54131723D02*
X28717731Y-54179342D01*
X28717731Y-54179342D02*
X28717731Y-54369819D01*
X28717731Y-54369819D02*
X28955826Y-54369819D01*
X37682969Y-53499819D02*
X37206779Y-53499819D01*
X37206779Y-53499819D02*
X37159160Y-53976009D01*
X37159160Y-53976009D02*
X37206779Y-53928390D01*
X37206779Y-53928390D02*
X37302017Y-53880771D01*
X37302017Y-53880771D02*
X37540112Y-53880771D01*
X37540112Y-53880771D02*
X37635350Y-53928390D01*
X37635350Y-53928390D02*
X37682969Y-53976009D01*
X37682969Y-53976009D02*
X37730588Y-54071247D01*
X37730588Y-54071247D02*
X37730588Y-54309342D01*
X37730588Y-54309342D02*
X37682969Y-54404580D01*
X37682969Y-54404580D02*
X37635350Y-54452200D01*
X37635350Y-54452200D02*
X37540112Y-54499819D01*
X37540112Y-54499819D02*
X37302017Y-54499819D01*
X37302017Y-54499819D02*
X37206779Y-54452200D01*
X37206779Y-54452200D02*
X37159160Y-54404580D01*
X38349636Y-53499819D02*
X38444874Y-53499819D01*
X38444874Y-53499819D02*
X38540112Y-53547438D01*
X38540112Y-53547438D02*
X38587731Y-53595057D01*
X38587731Y-53595057D02*
X38635350Y-53690295D01*
X38635350Y-53690295D02*
X38682969Y-53880771D01*
X38682969Y-53880771D02*
X38682969Y-54118866D01*
X38682969Y-54118866D02*
X38635350Y-54309342D01*
X38635350Y-54309342D02*
X38587731Y-54404580D01*
X38587731Y-54404580D02*
X38540112Y-54452200D01*
X38540112Y-54452200D02*
X38444874Y-54499819D01*
X38444874Y-54499819D02*
X38349636Y-54499819D01*
X38349636Y-54499819D02*
X38254398Y-54452200D01*
X38254398Y-54452200D02*
X38206779Y-54404580D01*
X38206779Y-54404580D02*
X38159160Y-54309342D01*
X38159160Y-54309342D02*
X38111541Y-54118866D01*
X38111541Y-54118866D02*
X38111541Y-53880771D01*
X38111541Y-53880771D02*
X38159160Y-53690295D01*
X38159160Y-53690295D02*
X38206779Y-53595057D01*
X38206779Y-53595057D02*
X38254398Y-53547438D01*
X38254398Y-53547438D02*
X38349636Y-53499819D01*
X39063922Y-54499819D02*
X39302017Y-54499819D01*
X39302017Y-54499819D02*
X39302017Y-54309342D01*
X39302017Y-54309342D02*
X39206779Y-54261723D01*
X39206779Y-54261723D02*
X39111541Y-54166485D01*
X39111541Y-54166485D02*
X39063922Y-54023628D01*
X39063922Y-54023628D02*
X39063922Y-53785533D01*
X39063922Y-53785533D02*
X39111541Y-53642676D01*
X39111541Y-53642676D02*
X39206779Y-53547438D01*
X39206779Y-53547438D02*
X39349636Y-53499819D01*
X39349636Y-53499819D02*
X39540112Y-53499819D01*
X39540112Y-53499819D02*
X39682969Y-53547438D01*
X39682969Y-53547438D02*
X39778207Y-53642676D01*
X39778207Y-53642676D02*
X39825826Y-53785533D01*
X39825826Y-53785533D02*
X39825826Y-54023628D01*
X39825826Y-54023628D02*
X39778207Y-54166485D01*
X39778207Y-54166485D02*
X39682969Y-54261723D01*
X39682969Y-54261723D02*
X39587731Y-54309342D01*
X39587731Y-54309342D02*
X39587731Y-54499819D01*
X39587731Y-54499819D02*
X39825826Y-54499819D01*
X32908207Y-52774580D02*
X32860588Y-52822200D01*
X32860588Y-52822200D02*
X32717731Y-52869819D01*
X32717731Y-52869819D02*
X32622493Y-52869819D01*
X32622493Y-52869819D02*
X32479636Y-52822200D01*
X32479636Y-52822200D02*
X32384398Y-52726961D01*
X32384398Y-52726961D02*
X32336779Y-52631723D01*
X32336779Y-52631723D02*
X32289160Y-52441247D01*
X32289160Y-52441247D02*
X32289160Y-52298390D01*
X32289160Y-52298390D02*
X32336779Y-52107914D01*
X32336779Y-52107914D02*
X32384398Y-52012676D01*
X32384398Y-52012676D02*
X32479636Y-51917438D01*
X32479636Y-51917438D02*
X32622493Y-51869819D01*
X32622493Y-51869819D02*
X32717731Y-51869819D01*
X32717731Y-51869819D02*
X32860588Y-51917438D01*
X32860588Y-51917438D02*
X32908207Y-51965057D01*
X33860588Y-52869819D02*
X33289160Y-52869819D01*
X33574874Y-52869819D02*
X33574874Y-51869819D01*
X33574874Y-51869819D02*
X33479636Y-52012676D01*
X33479636Y-52012676D02*
X33384398Y-52107914D01*
X33384398Y-52107914D02*
X33289160Y-52155533D01*
X33000000Y-61000000D02*
X33000000Y-53500000D01*
X67059160Y-72113057D02*
X67106779Y-72065438D01*
X67106779Y-72065438D02*
X67202017Y-72017819D01*
X67202017Y-72017819D02*
X67440112Y-72017819D01*
X67440112Y-72017819D02*
X67535350Y-72065438D01*
X67535350Y-72065438D02*
X67582969Y-72113057D01*
X67582969Y-72113057D02*
X67630588Y-72208295D01*
X67630588Y-72208295D02*
X67630588Y-72303533D01*
X67630588Y-72303533D02*
X67582969Y-72446390D01*
X67582969Y-72446390D02*
X67011541Y-73017819D01*
X67011541Y-73017819D02*
X67630588Y-73017819D01*
X68059160Y-72636866D02*
X68821065Y-72636866D01*
X57130588Y-73017819D02*
X56559160Y-73017819D01*
X56844874Y-73017819D02*
X56844874Y-72017819D01*
X56844874Y-72017819D02*
X56749636Y-72160676D01*
X56749636Y-72160676D02*
X56654398Y-72255914D01*
X56654398Y-72255914D02*
X56559160Y-72303533D01*
X57559160Y-72636866D02*
X58321065Y-72636866D01*
X57770000Y-73648000D02*
X67270000Y-73648000D01*
X50860588Y-80917438D02*
X50765350Y-80869819D01*
X50765350Y-80869819D02*
X50622493Y-80869819D01*
X50622493Y-80869819D02*
X50479636Y-80917438D01*
X50479636Y-80917438D02*
X50384398Y-81012676D01*
X50384398Y-81012676D02*
X50336779Y-81107914D01*
X50336779Y-81107914D02*
X50289160Y-81298390D01*
X50289160Y-81298390D02*
X50289160Y-81441247D01*
X50289160Y-81441247D02*
X50336779Y-81631723D01*
X50336779Y-81631723D02*
X50384398Y-81726961D01*
X50384398Y-81726961D02*
X50479636Y-81822200D01*
X50479636Y-81822200D02*
X50622493Y-81869819D01*
X50622493Y-81869819D02*
X50717731Y-81869819D01*
X50717731Y-81869819D02*
X50860588Y-81822200D01*
X50860588Y-81822200D02*
X50908207Y-81774580D01*
X50908207Y-81774580D02*
X50908207Y-81441247D01*
X50908207Y-81441247D02*
X50717731Y-81441247D01*
X51336779Y-81869819D02*
X51336779Y-80869819D01*
X51336779Y-80869819D02*
X51908207Y-81869819D01*
X51908207Y-81869819D02*
X51908207Y-80869819D01*
X52384398Y-81869819D02*
X52384398Y-80869819D01*
X52384398Y-80869819D02*
X52622493Y-80869819D01*
X52622493Y-80869819D02*
X52765350Y-80917438D01*
X52765350Y-80917438D02*
X52860588Y-81012676D01*
X52860588Y-81012676D02*
X52908207Y-81107914D01*
X52908207Y-81107914D02*
X52955826Y-81298390D01*
X52955826Y-81298390D02*
X52955826Y-81441247D01*
X52955826Y-81441247D02*
X52908207Y-81631723D01*
X52908207Y-81631723D02*
X52860588Y-81726961D01*
X52860588Y-81726961D02*
X52765350Y-81822200D01*
X52765350Y-81822200D02*
X52622493Y-81869819D01*
X52622493Y-81869819D02*
X52384398Y-81869819D01*
X47836779Y-81488866D02*
X48598684Y-81488866D01*
X48217731Y-81869819D02*
X48217731Y-81107914D01*
X49779000Y-91500000D02*
X49779000Y-81000000D01*
X35836779Y-79369819D02*
X35836779Y-78369819D01*
X35836779Y-78369819D02*
X36217731Y-78369819D01*
X36217731Y-78369819D02*
X36312969Y-78417438D01*
X36312969Y-78417438D02*
X36360588Y-78465057D01*
X36360588Y-78465057D02*
X36408207Y-78560295D01*
X36408207Y-78560295D02*
X36408207Y-78703152D01*
X36408207Y-78703152D02*
X36360588Y-78798390D01*
X36360588Y-78798390D02*
X36312969Y-78846009D01*
X36312969Y-78846009D02*
X36217731Y-78893628D01*
X36217731Y-78893628D02*
X35836779Y-78893628D01*
X36979636Y-79369819D02*
X36884398Y-79322200D01*
X36884398Y-79322200D02*
X36836779Y-79274580D01*
X36836779Y-79274580D02*
X36789160Y-79179342D01*
X36789160Y-79179342D02*
X36789160Y-78893628D01*
X36789160Y-78893628D02*
X36836779Y-78798390D01*
X36836779Y-78798390D02*
X36884398Y-78750771D01*
X36884398Y-78750771D02*
X36979636Y-78703152D01*
X36979636Y-78703152D02*
X37122493Y-78703152D01*
X37122493Y-78703152D02*
X37217731Y-78750771D01*
X37217731Y-78750771D02*
X37265350Y-78798390D01*
X37265350Y-78798390D02*
X37312969Y-78893628D01*
X37312969Y-78893628D02*
X37312969Y-79179342D01*
X37312969Y-79179342D02*
X37265350Y-79274580D01*
X37265350Y-79274580D02*
X37217731Y-79322200D01*
X37217731Y-79322200D02*
X37122493Y-79369819D01*
X37122493Y-79369819D02*
X36979636Y-79369819D01*
X37646303Y-78703152D02*
X37836779Y-79369819D01*
X37836779Y-79369819D02*
X38027255Y-78893628D01*
X38027255Y-78893628D02*
X38217731Y-79369819D01*
X38217731Y-79369819D02*
X38408207Y-78703152D01*
X39170112Y-79322200D02*
X39074874Y-79369819D01*
X39074874Y-79369819D02*
X38884398Y-79369819D01*
X38884398Y-79369819D02*
X38789160Y-79322200D01*
X38789160Y-79322200D02*
X38741541Y-79226961D01*
X38741541Y-79226961D02*
X38741541Y-78846009D01*
X38741541Y-78846009D02*
X38789160Y-78750771D01*
X38789160Y-78750771D02*
X38884398Y-78703152D01*
X38884398Y-78703152D02*
X39074874Y-78703152D01*
X39074874Y-78703152D02*
X39170112Y-78750771D01*
X39170112Y-78750771D02*
X39217731Y-78846009D01*
X39217731Y-78846009D02*
X39217731Y-78941247D01*
X39217731Y-78941247D02*
X38741541Y-79036485D01*
X39646303Y-79369819D02*
X39646303Y-78703152D01*
X39646303Y-78893628D02*
X39693922Y-78798390D01*
X39693922Y-78798390D02*
X39741541Y-78750771D01*
X39741541Y-78750771D02*
X39836779Y-78703152D01*
X39836779Y-78703152D02*
X39932017Y-78703152D01*
X83836779Y-79869819D02*
X83836779Y-78869819D01*
X83836779Y-78869819D02*
X84217731Y-78869819D01*
X84217731Y-78869819D02*
X84312969Y-78917438D01*
X84312969Y-78917438D02*
X84360588Y-78965057D01*
X84360588Y-78965057D02*
X84408207Y-79060295D01*
X84408207Y-79060295D02*
X84408207Y-79203152D01*
X84408207Y-79203152D02*
X84360588Y-79298390D01*
X84360588Y-79298390D02*
X84312969Y-79346009D01*
X84312969Y-79346009D02*
X84217731Y-79393628D01*
X84217731Y-79393628D02*
X83836779Y-79393628D01*
X84979636Y-79869819D02*
X84884398Y-79822200D01*
X84884398Y-79822200D02*
X84836779Y-79774580D01*
X84836779Y-79774580D02*
X84789160Y-79679342D01*
X84789160Y-79679342D02*
X84789160Y-79393628D01*
X84789160Y-79393628D02*
X84836779Y-79298390D01*
X84836779Y-79298390D02*
X84884398Y-79250771D01*
X84884398Y-79250771D02*
X84979636Y-79203152D01*
X84979636Y-79203152D02*
X85122493Y-79203152D01*
X85122493Y-79203152D02*
X85217731Y-79250771D01*
X85217731Y-79250771D02*
X85265350Y-79298390D01*
X85265350Y-79298390D02*
X85312969Y-79393628D01*
X85312969Y-79393628D02*
X85312969Y-79679342D01*
X85312969Y-79679342D02*
X85265350Y-79774580D01*
X85265350Y-79774580D02*
X85217731Y-79822200D01*
X85217731Y-79822200D02*
X85122493Y-79869819D01*
X85122493Y-79869819D02*
X84979636Y-79869819D01*
X85646303Y-79203152D02*
X85836779Y-79869819D01*
X85836779Y-79869819D02*
X86027255Y-79393628D01*
X86027255Y-79393628D02*
X86217731Y-79869819D01*
X86217731Y-79869819D02*
X86408207Y-79203152D01*
X87170112Y-79822200D02*
X87074874Y-79869819D01*
X87074874Y-79869819D02*
X86884398Y-79869819D01*
X86884398Y-79869819D02*
X86789160Y-79822200D01*
X86789160Y-79822200D02*
X86741541Y-79726961D01*
X86741541Y-79726961D02*
X86741541Y-79346009D01*
X86741541Y-79346009D02*
X86789160Y-79250771D01*
X86789160Y-79250771D02*
X86884398Y-79203152D01*
X86884398Y-79203152D02*
X87074874Y-79203152D01*
X87074874Y-79203152D02*
X87170112Y-79250771D01*
X87170112Y-79250771D02*
X87217731Y-79346009D01*
X87217731Y-79346009D02*
X87217731Y-79441247D01*
X87217731Y-79441247D02*
X86741541Y-79536485D01*
X87646303Y-79869819D02*
X87646303Y-79203152D01*
X87646303Y-79393628D02*
X87693922Y-79298390D01*
X87693922Y-79298390D02*
X87741541Y-79250771D01*
X87741541Y-79250771D02*
X87836779Y-79203152D01*
X87836779Y-79203152D02*
X87932017Y-79203152D01*
X75860588Y-80917438D02*
X75765350Y-80869819D01*
X75765350Y-80869819D02*
X75622493Y-80869819D01*
X75622493Y-80869819D02*
X75479636Y-80917438D01*
X75479636Y-80917438D02*
X75384398Y-81012676D01*
X75384398Y-81012676D02*
X75336779Y-81107914D01*
X75336779Y-81107914D02*
X75289160Y-81298390D01*
X75289160Y-81298390D02*
X75289160Y-81441247D01*
X75289160Y-81441247D02*
X75336779Y-81631723D01*
X75336779Y-81631723D02*
X75384398Y-81726961D01*
X75384398Y-81726961D02*
X75479636Y-81822200D01*
X75479636Y-81822200D02*
X75622493Y-81869819D01*
X75622493Y-81869819D02*
X75717731Y-81869819D01*
X75717731Y-81869819D02*
X75860588Y-81822200D01*
X75860588Y-81822200D02*
X75908207Y-81774580D01*
X75908207Y-81774580D02*
X75908207Y-81441247D01*
X75908207Y-81441247D02*
X75717731Y-81441247D01*
X76336779Y-81869819D02*
X76336779Y-80869819D01*
X76336779Y-80869819D02*
X76908207Y-81869819D01*
X76908207Y-81869819D02*
X76908207Y-80869819D01*
X77384398Y-81869819D02*
X77384398Y-80869819D01*
X77384398Y-80869819D02*
X77622493Y-80869819D01*
X77622493Y-80869819D02*
X77765350Y-80917438D01*
X77765350Y-80917438D02*
X77860588Y-81012676D01*
X77860588Y-81012676D02*
X77908207Y-81107914D01*
X77908207Y-81107914D02*
X77955826Y-81298390D01*
X77955826Y-81298390D02*
X77955826Y-81441247D01*
X77955826Y-81441247D02*
X77908207Y-81631723D01*
X77908207Y-81631723D02*
X77860588Y-81726961D01*
X77860588Y-81726961D02*
X77765350Y-81822200D01*
X77765350Y-81822200D02*
X77622493Y-81869819D01*
X77622493Y-81869819D02*
X77384398Y-81869819D01*
X72836779Y-81488866D02*
X73598684Y-81488866D01*
X73217731Y-81869819D02*
X73217731Y-81107914D01*
X74676000Y-91500000D02*
X74676000Y-81000000D01*
X60408207Y-32774580D02*
X60360588Y-32822200D01*
X60360588Y-32822200D02*
X60217731Y-32869819D01*
X60217731Y-32869819D02*
X60122493Y-32869819D01*
X60122493Y-32869819D02*
X59979636Y-32822200D01*
X59979636Y-32822200D02*
X59884398Y-32726961D01*
X59884398Y-32726961D02*
X59836779Y-32631723D01*
X59836779Y-32631723D02*
X59789160Y-32441247D01*
X59789160Y-32441247D02*
X59789160Y-32298390D01*
X59789160Y-32298390D02*
X59836779Y-32107914D01*
X59836779Y-32107914D02*
X59884398Y-32012676D01*
X59884398Y-32012676D02*
X59979636Y-31917438D01*
X59979636Y-31917438D02*
X60122493Y-31869819D01*
X60122493Y-31869819D02*
X60217731Y-31869819D01*
X60217731Y-31869819D02*
X60360588Y-31917438D01*
X60360588Y-31917438D02*
X60408207Y-31965057D01*
X61360588Y-32869819D02*
X60789160Y-32869819D01*
X61074874Y-32869819D02*
X61074874Y-31869819D01*
X61074874Y-31869819D02*
X60979636Y-32012676D01*
X60979636Y-32012676D02*
X60884398Y-32107914D01*
X60884398Y-32107914D02*
X60789160Y-32155533D01*
X63908207Y-32774580D02*
X63860588Y-32822200D01*
X63860588Y-32822200D02*
X63717731Y-32869819D01*
X63717731Y-32869819D02*
X63622493Y-32869819D01*
X63622493Y-32869819D02*
X63479636Y-32822200D01*
X63479636Y-32822200D02*
X63384398Y-32726961D01*
X63384398Y-32726961D02*
X63336779Y-32631723D01*
X63336779Y-32631723D02*
X63289160Y-32441247D01*
X63289160Y-32441247D02*
X63289160Y-32298390D01*
X63289160Y-32298390D02*
X63336779Y-32107914D01*
X63336779Y-32107914D02*
X63384398Y-32012676D01*
X63384398Y-32012676D02*
X63479636Y-31917438D01*
X63479636Y-31917438D02*
X63622493Y-31869819D01*
X63622493Y-31869819D02*
X63717731Y-31869819D01*
X63717731Y-31869819D02*
X63860588Y-31917438D01*
X63860588Y-31917438D02*
X63908207Y-31965057D01*
X64289160Y-31965057D02*
X64336779Y-31917438D01*
X64336779Y-31917438D02*
X64432017Y-31869819D01*
X64432017Y-31869819D02*
X64670112Y-31869819D01*
X64670112Y-31869819D02*
X64765350Y-31917438D01*
X64765350Y-31917438D02*
X64812969Y-31965057D01*
X64812969Y-31965057D02*
X64860588Y-32060295D01*
X64860588Y-32060295D02*
X64860588Y-32155533D01*
X64860588Y-32155533D02*
X64812969Y-32298390D01*
X64812969Y-32298390D02*
X64241541Y-32869819D01*
X64241541Y-32869819D02*
X64860588Y-32869819D01*
X62250000Y-43500000D02*
X62250000Y-31500000D01*
X59693922Y-29869819D02*
X60265350Y-29869819D01*
X59979636Y-30869819D02*
X59979636Y-29869819D01*
X60598684Y-30869819D02*
X60598684Y-30203152D01*
X60598684Y-30393628D02*
X60646303Y-30298390D01*
X60646303Y-30298390D02*
X60693922Y-30250771D01*
X60693922Y-30250771D02*
X60789160Y-30203152D01*
X60789160Y-30203152D02*
X60884398Y-30203152D01*
X61217732Y-30869819D02*
X61217732Y-30203152D01*
X61217732Y-29869819D02*
X61170113Y-29917438D01*
X61170113Y-29917438D02*
X61217732Y-29965057D01*
X61217732Y-29965057D02*
X61265351Y-29917438D01*
X61265351Y-29917438D02*
X61217732Y-29869819D01*
X61217732Y-29869819D02*
X61217732Y-29965057D01*
X62122493Y-30203152D02*
X62122493Y-31012676D01*
X62122493Y-31012676D02*
X62074874Y-31107914D01*
X62074874Y-31107914D02*
X62027255Y-31155533D01*
X62027255Y-31155533D02*
X61932017Y-31203152D01*
X61932017Y-31203152D02*
X61789160Y-31203152D01*
X61789160Y-31203152D02*
X61693922Y-31155533D01*
X62122493Y-30822200D02*
X62027255Y-30869819D01*
X62027255Y-30869819D02*
X61836779Y-30869819D01*
X61836779Y-30869819D02*
X61741541Y-30822200D01*
X61741541Y-30822200D02*
X61693922Y-30774580D01*
X61693922Y-30774580D02*
X61646303Y-30679342D01*
X61646303Y-30679342D02*
X61646303Y-30393628D01*
X61646303Y-30393628D02*
X61693922Y-30298390D01*
X61693922Y-30298390D02*
X61741541Y-30250771D01*
X61741541Y-30250771D02*
X61836779Y-30203152D01*
X61836779Y-30203152D02*
X62027255Y-30203152D01*
X62027255Y-30203152D02*
X62122493Y-30250771D01*
X63027255Y-30203152D02*
X63027255Y-31012676D01*
X63027255Y-31012676D02*
X62979636Y-31107914D01*
X62979636Y-31107914D02*
X62932017Y-31155533D01*
X62932017Y-31155533D02*
X62836779Y-31203152D01*
X62836779Y-31203152D02*
X62693922Y-31203152D01*
X62693922Y-31203152D02*
X62598684Y-31155533D01*
X63027255Y-30822200D02*
X62932017Y-30869819D01*
X62932017Y-30869819D02*
X62741541Y-30869819D01*
X62741541Y-30869819D02*
X62646303Y-30822200D01*
X62646303Y-30822200D02*
X62598684Y-30774580D01*
X62598684Y-30774580D02*
X62551065Y-30679342D01*
X62551065Y-30679342D02*
X62551065Y-30393628D01*
X62551065Y-30393628D02*
X62598684Y-30298390D01*
X62598684Y-30298390D02*
X62646303Y-30250771D01*
X62646303Y-30250771D02*
X62741541Y-30203152D01*
X62741541Y-30203152D02*
X62932017Y-30203152D01*
X62932017Y-30203152D02*
X63027255Y-30250771D01*
X63884398Y-30822200D02*
X63789160Y-30869819D01*
X63789160Y-30869819D02*
X63598684Y-30869819D01*
X63598684Y-30869819D02*
X63503446Y-30822200D01*
X63503446Y-30822200D02*
X63455827Y-30726961D01*
X63455827Y-30726961D02*
X63455827Y-30346009D01*
X63455827Y-30346009D02*
X63503446Y-30250771D01*
X63503446Y-30250771D02*
X63598684Y-30203152D01*
X63598684Y-30203152D02*
X63789160Y-30203152D01*
X63789160Y-30203152D02*
X63884398Y-30250771D01*
X63884398Y-30250771D02*
X63932017Y-30346009D01*
X63932017Y-30346009D02*
X63932017Y-30441247D01*
X63932017Y-30441247D02*
X63455827Y-30536485D01*
X64360589Y-30869819D02*
X64360589Y-30203152D01*
X64360589Y-30393628D02*
X64408208Y-30298390D01*
X64408208Y-30298390D02*
X64455827Y-30250771D01*
X64455827Y-30250771D02*
X64551065Y-30203152D01*
X64551065Y-30203152D02*
X64646303Y-30203152D01*
X86860588Y-80917438D02*
X86765350Y-80869819D01*
X86765350Y-80869819D02*
X86622493Y-80869819D01*
X86622493Y-80869819D02*
X86479636Y-80917438D01*
X86479636Y-80917438D02*
X86384398Y-81012676D01*
X86384398Y-81012676D02*
X86336779Y-81107914D01*
X86336779Y-81107914D02*
X86289160Y-81298390D01*
X86289160Y-81298390D02*
X86289160Y-81441247D01*
X86289160Y-81441247D02*
X86336779Y-81631723D01*
X86336779Y-81631723D02*
X86384398Y-81726961D01*
X86384398Y-81726961D02*
X86479636Y-81822200D01*
X86479636Y-81822200D02*
X86622493Y-81869819D01*
X86622493Y-81869819D02*
X86717731Y-81869819D01*
X86717731Y-81869819D02*
X86860588Y-81822200D01*
X86860588Y-81822200D02*
X86908207Y-81774580D01*
X86908207Y-81774580D02*
X86908207Y-81441247D01*
X86908207Y-81441247D02*
X86717731Y-81441247D01*
X87336779Y-81869819D02*
X87336779Y-80869819D01*
X87336779Y-80869819D02*
X87908207Y-81869819D01*
X87908207Y-81869819D02*
X87908207Y-80869819D01*
X88384398Y-81869819D02*
X88384398Y-80869819D01*
X88384398Y-80869819D02*
X88622493Y-80869819D01*
X88622493Y-80869819D02*
X88765350Y-80917438D01*
X88765350Y-80917438D02*
X88860588Y-81012676D01*
X88860588Y-81012676D02*
X88908207Y-81107914D01*
X88908207Y-81107914D02*
X88955826Y-81298390D01*
X88955826Y-81298390D02*
X88955826Y-81441247D01*
X88955826Y-81441247D02*
X88908207Y-81631723D01*
X88908207Y-81631723D02*
X88860588Y-81726961D01*
X88860588Y-81726961D02*
X88765350Y-81822200D01*
X88765350Y-81822200D02*
X88622493Y-81869819D01*
X88622493Y-81869819D02*
X88384398Y-81869819D01*
X83836779Y-81488866D02*
X84598684Y-81488866D01*
X85847000Y-91500000D02*
X85847000Y-81000000D01*
X38860588Y-80917438D02*
X38765350Y-80869819D01*
X38765350Y-80869819D02*
X38622493Y-80869819D01*
X38622493Y-80869819D02*
X38479636Y-80917438D01*
X38479636Y-80917438D02*
X38384398Y-81012676D01*
X38384398Y-81012676D02*
X38336779Y-81107914D01*
X38336779Y-81107914D02*
X38289160Y-81298390D01*
X38289160Y-81298390D02*
X38289160Y-81441247D01*
X38289160Y-81441247D02*
X38336779Y-81631723D01*
X38336779Y-81631723D02*
X38384398Y-81726961D01*
X38384398Y-81726961D02*
X38479636Y-81822200D01*
X38479636Y-81822200D02*
X38622493Y-81869819D01*
X38622493Y-81869819D02*
X38717731Y-81869819D01*
X38717731Y-81869819D02*
X38860588Y-81822200D01*
X38860588Y-81822200D02*
X38908207Y-81774580D01*
X38908207Y-81774580D02*
X38908207Y-81441247D01*
X38908207Y-81441247D02*
X38717731Y-81441247D01*
X39336779Y-81869819D02*
X39336779Y-80869819D01*
X39336779Y-80869819D02*
X39908207Y-81869819D01*
X39908207Y-81869819D02*
X39908207Y-80869819D01*
X40384398Y-81869819D02*
X40384398Y-80869819D01*
X40384398Y-80869819D02*
X40622493Y-80869819D01*
X40622493Y-80869819D02*
X40765350Y-80917438D01*
X40765350Y-80917438D02*
X40860588Y-81012676D01*
X40860588Y-81012676D02*
X40908207Y-81107914D01*
X40908207Y-81107914D02*
X40955826Y-81298390D01*
X40955826Y-81298390D02*
X40955826Y-81441247D01*
X40955826Y-81441247D02*
X40908207Y-81631723D01*
X40908207Y-81631723D02*
X40860588Y-81726961D01*
X40860588Y-81726961D02*
X40765350Y-81822200D01*
X40765350Y-81822200D02*
X40622493Y-81869819D01*
X40622493Y-81869819D02*
X40384398Y-81869819D01*
X35836779Y-81488866D02*
X36598684Y-81488866D01*
X36217731Y-81869819D02*
X36217731Y-81107914D01*
X37770000Y-91500000D02*
X37770000Y-80500000D01*
X62250000Y-91500000D02*
X62250000Y-81000000D01*
X63908207Y-81774580D02*
X63860588Y-81822200D01*
X63860588Y-81822200D02*
X63717731Y-81869819D01*
X63717731Y-81869819D02*
X63622493Y-81869819D01*
X63622493Y-81869819D02*
X63479636Y-81822200D01*
X63479636Y-81822200D02*
X63384398Y-81726961D01*
X63384398Y-81726961D02*
X63336779Y-81631723D01*
X63336779Y-81631723D02*
X63289160Y-81441247D01*
X63289160Y-81441247D02*
X63289160Y-81298390D01*
X63289160Y-81298390D02*
X63336779Y-81107914D01*
X63336779Y-81107914D02*
X63384398Y-81012676D01*
X63384398Y-81012676D02*
X63479636Y-80917438D01*
X63479636Y-80917438D02*
X63622493Y-80869819D01*
X63622493Y-80869819D02*
X63717731Y-80869819D01*
X63717731Y-80869819D02*
X63860588Y-80917438D01*
X63860588Y-80917438D02*
X63908207Y-80965057D01*
X64289160Y-80965057D02*
X64336779Y-80917438D01*
X64336779Y-80917438D02*
X64432017Y-80869819D01*
X64432017Y-80869819D02*
X64670112Y-80869819D01*
X64670112Y-80869819D02*
X64765350Y-80917438D01*
X64765350Y-80917438D02*
X64812969Y-80965057D01*
X64812969Y-80965057D02*
X64860588Y-81060295D01*
X64860588Y-81060295D02*
X64860588Y-81155533D01*
X64860588Y-81155533D02*
X64812969Y-81298390D01*
X64812969Y-81298390D02*
X64241541Y-81869819D01*
X64241541Y-81869819D02*
X64860588Y-81869819D01*
X60408207Y-81774580D02*
X60360588Y-81822200D01*
X60360588Y-81822200D02*
X60217731Y-81869819D01*
X60217731Y-81869819D02*
X60122493Y-81869819D01*
X60122493Y-81869819D02*
X59979636Y-81822200D01*
X59979636Y-81822200D02*
X59884398Y-81726961D01*
X59884398Y-81726961D02*
X59836779Y-81631723D01*
X59836779Y-81631723D02*
X59789160Y-81441247D01*
X59789160Y-81441247D02*
X59789160Y-81298390D01*
X59789160Y-81298390D02*
X59836779Y-81107914D01*
X59836779Y-81107914D02*
X59884398Y-81012676D01*
X59884398Y-81012676D02*
X59979636Y-80917438D01*
X59979636Y-80917438D02*
X60122493Y-80869819D01*
X60122493Y-80869819D02*
X60217731Y-80869819D01*
X60217731Y-80869819D02*
X60360588Y-80917438D01*
X60360588Y-80917438D02*
X60408207Y-80965057D01*
X61360588Y-81869819D02*
X60789160Y-81869819D01*
X61074874Y-81869819D02*
X61074874Y-80869819D01*
X61074874Y-80869819D02*
X60979636Y-81012676D01*
X60979636Y-81012676D02*
X60884398Y-81107914D01*
X60884398Y-81107914D02*
X60789160Y-81155533D01*
X59241541Y-78869819D02*
X59479636Y-79869819D01*
X59479636Y-79869819D02*
X59670112Y-79155533D01*
X59670112Y-79155533D02*
X59860588Y-79869819D01*
X59860588Y-79869819D02*
X60098684Y-78869819D01*
X60908207Y-79869819D02*
X60908207Y-79346009D01*
X60908207Y-79346009D02*
X60860588Y-79250771D01*
X60860588Y-79250771D02*
X60765350Y-79203152D01*
X60765350Y-79203152D02*
X60574874Y-79203152D01*
X60574874Y-79203152D02*
X60479636Y-79250771D01*
X60908207Y-79822200D02*
X60812969Y-79869819D01*
X60812969Y-79869819D02*
X60574874Y-79869819D01*
X60574874Y-79869819D02*
X60479636Y-79822200D01*
X60479636Y-79822200D02*
X60432017Y-79726961D01*
X60432017Y-79726961D02*
X60432017Y-79631723D01*
X60432017Y-79631723D02*
X60479636Y-79536485D01*
X60479636Y-79536485D02*
X60574874Y-79488866D01*
X60574874Y-79488866D02*
X60812969Y-79488866D01*
X60812969Y-79488866D02*
X60908207Y-79441247D01*
X61289160Y-79203152D02*
X61527255Y-79869819D01*
X61527255Y-79869819D02*
X61765350Y-79203152D01*
X62527255Y-79822200D02*
X62432017Y-79869819D01*
X62432017Y-79869819D02*
X62241541Y-79869819D01*
X62241541Y-79869819D02*
X62146303Y-79822200D01*
X62146303Y-79822200D02*
X62098684Y-79726961D01*
X62098684Y-79726961D02*
X62098684Y-79346009D01*
X62098684Y-79346009D02*
X62146303Y-79250771D01*
X62146303Y-79250771D02*
X62241541Y-79203152D01*
X62241541Y-79203152D02*
X62432017Y-79203152D01*
X62432017Y-79203152D02*
X62527255Y-79250771D01*
X62527255Y-79250771D02*
X62574874Y-79346009D01*
X62574874Y-79346009D02*
X62574874Y-79441247D01*
X62574874Y-79441247D02*
X62098684Y-79536485D01*
X63432017Y-79203152D02*
X63432017Y-80012676D01*
X63432017Y-80012676D02*
X63384398Y-80107914D01*
X63384398Y-80107914D02*
X63336779Y-80155533D01*
X63336779Y-80155533D02*
X63241541Y-80203152D01*
X63241541Y-80203152D02*
X63098684Y-80203152D01*
X63098684Y-80203152D02*
X63003446Y-80155533D01*
X63432017Y-79822200D02*
X63336779Y-79869819D01*
X63336779Y-79869819D02*
X63146303Y-79869819D01*
X63146303Y-79869819D02*
X63051065Y-79822200D01*
X63051065Y-79822200D02*
X63003446Y-79774580D01*
X63003446Y-79774580D02*
X62955827Y-79679342D01*
X62955827Y-79679342D02*
X62955827Y-79393628D01*
X62955827Y-79393628D02*
X63003446Y-79298390D01*
X63003446Y-79298390D02*
X63051065Y-79250771D01*
X63051065Y-79250771D02*
X63146303Y-79203152D01*
X63146303Y-79203152D02*
X63336779Y-79203152D01*
X63336779Y-79203152D02*
X63432017Y-79250771D01*
X64289160Y-79822200D02*
X64193922Y-79869819D01*
X64193922Y-79869819D02*
X64003446Y-79869819D01*
X64003446Y-79869819D02*
X63908208Y-79822200D01*
X63908208Y-79822200D02*
X63860589Y-79726961D01*
X63860589Y-79726961D02*
X63860589Y-79346009D01*
X63860589Y-79346009D02*
X63908208Y-79250771D01*
X63908208Y-79250771D02*
X64003446Y-79203152D01*
X64003446Y-79203152D02*
X64193922Y-79203152D01*
X64193922Y-79203152D02*
X64289160Y-79250771D01*
X64289160Y-79250771D02*
X64336779Y-79346009D01*
X64336779Y-79346009D02*
X64336779Y-79441247D01*
X64336779Y-79441247D02*
X63860589Y-79536485D01*
X64765351Y-79203152D02*
X64765351Y-79869819D01*
X64765351Y-79298390D02*
X64812970Y-79250771D01*
X64812970Y-79250771D02*
X64908208Y-79203152D01*
X64908208Y-79203152D02*
X65051065Y-79203152D01*
X65051065Y-79203152D02*
X65146303Y-79250771D01*
X65146303Y-79250771D02*
X65193922Y-79346009D01*
X65193922Y-79346009D02*
X65193922Y-79869819D01*
X46908207Y-79774580D02*
X46860588Y-79822200D01*
X46860588Y-79822200D02*
X46717731Y-79869819D01*
X46717731Y-79869819D02*
X46622493Y-79869819D01*
X46622493Y-79869819D02*
X46479636Y-79822200D01*
X46479636Y-79822200D02*
X46384398Y-79726961D01*
X46384398Y-79726961D02*
X46336779Y-79631723D01*
X46336779Y-79631723D02*
X46289160Y-79441247D01*
X46289160Y-79441247D02*
X46289160Y-79298390D01*
X46289160Y-79298390D02*
X46336779Y-79107914D01*
X46336779Y-79107914D02*
X46384398Y-79012676D01*
X46384398Y-79012676D02*
X46479636Y-78917438D01*
X46479636Y-78917438D02*
X46622493Y-78869819D01*
X46622493Y-78869819D02*
X46717731Y-78869819D01*
X46717731Y-78869819D02*
X46860588Y-78917438D01*
X46860588Y-78917438D02*
X46908207Y-78965057D01*
X47336779Y-79869819D02*
X47336779Y-78869819D01*
X47765350Y-79869819D02*
X47765350Y-79346009D01*
X47765350Y-79346009D02*
X47717731Y-79250771D01*
X47717731Y-79250771D02*
X47622493Y-79203152D01*
X47622493Y-79203152D02*
X47479636Y-79203152D01*
X47479636Y-79203152D02*
X47384398Y-79250771D01*
X47384398Y-79250771D02*
X47336779Y-79298390D01*
X48670112Y-79869819D02*
X48670112Y-79346009D01*
X48670112Y-79346009D02*
X48622493Y-79250771D01*
X48622493Y-79250771D02*
X48527255Y-79203152D01*
X48527255Y-79203152D02*
X48336779Y-79203152D01*
X48336779Y-79203152D02*
X48241541Y-79250771D01*
X48670112Y-79822200D02*
X48574874Y-79869819D01*
X48574874Y-79869819D02*
X48336779Y-79869819D01*
X48336779Y-79869819D02*
X48241541Y-79822200D01*
X48241541Y-79822200D02*
X48193922Y-79726961D01*
X48193922Y-79726961D02*
X48193922Y-79631723D01*
X48193922Y-79631723D02*
X48241541Y-79536485D01*
X48241541Y-79536485D02*
X48336779Y-79488866D01*
X48336779Y-79488866D02*
X48574874Y-79488866D01*
X48574874Y-79488866D02*
X48670112Y-79441247D01*
X49146303Y-79203152D02*
X49146303Y-79869819D01*
X49146303Y-79298390D02*
X49193922Y-79250771D01*
X49193922Y-79250771D02*
X49289160Y-79203152D01*
X49289160Y-79203152D02*
X49432017Y-79203152D01*
X49432017Y-79203152D02*
X49527255Y-79250771D01*
X49527255Y-79250771D02*
X49574874Y-79346009D01*
X49574874Y-79346009D02*
X49574874Y-79869819D01*
X50051065Y-79203152D02*
X50051065Y-79869819D01*
X50051065Y-79298390D02*
X50098684Y-79250771D01*
X50098684Y-79250771D02*
X50193922Y-79203152D01*
X50193922Y-79203152D02*
X50336779Y-79203152D01*
X50336779Y-79203152D02*
X50432017Y-79250771D01*
X50432017Y-79250771D02*
X50479636Y-79346009D01*
X50479636Y-79346009D02*
X50479636Y-79869819D01*
X51336779Y-79822200D02*
X51241541Y-79869819D01*
X51241541Y-79869819D02*
X51051065Y-79869819D01*
X51051065Y-79869819D02*
X50955827Y-79822200D01*
X50955827Y-79822200D02*
X50908208Y-79726961D01*
X50908208Y-79726961D02*
X50908208Y-79346009D01*
X50908208Y-79346009D02*
X50955827Y-79250771D01*
X50955827Y-79250771D02*
X51051065Y-79203152D01*
X51051065Y-79203152D02*
X51241541Y-79203152D01*
X51241541Y-79203152D02*
X51336779Y-79250771D01*
X51336779Y-79250771D02*
X51384398Y-79346009D01*
X51384398Y-79346009D02*
X51384398Y-79441247D01*
X51384398Y-79441247D02*
X50908208Y-79536485D01*
X51955827Y-79869819D02*
X51860589Y-79822200D01*
X51860589Y-79822200D02*
X51812970Y-79726961D01*
X51812970Y-79726961D02*
X51812970Y-78869819D01*
X53622494Y-79869819D02*
X53051066Y-79869819D01*
X53336780Y-79869819D02*
X53336780Y-78869819D01*
X53336780Y-78869819D02*
X53241542Y-79012676D01*
X53241542Y-79012676D02*
X53146304Y-79107914D01*
X53146304Y-79107914D02*
X53051066Y-79155533D01*
X71908207Y-79774580D02*
X71860588Y-79822200D01*
X71860588Y-79822200D02*
X71717731Y-79869819D01*
X71717731Y-79869819D02*
X71622493Y-79869819D01*
X71622493Y-79869819D02*
X71479636Y-79822200D01*
X71479636Y-79822200D02*
X71384398Y-79726961D01*
X71384398Y-79726961D02*
X71336779Y-79631723D01*
X71336779Y-79631723D02*
X71289160Y-79441247D01*
X71289160Y-79441247D02*
X71289160Y-79298390D01*
X71289160Y-79298390D02*
X71336779Y-79107914D01*
X71336779Y-79107914D02*
X71384398Y-79012676D01*
X71384398Y-79012676D02*
X71479636Y-78917438D01*
X71479636Y-78917438D02*
X71622493Y-78869819D01*
X71622493Y-78869819D02*
X71717731Y-78869819D01*
X71717731Y-78869819D02*
X71860588Y-78917438D01*
X71860588Y-78917438D02*
X71908207Y-78965057D01*
X72336779Y-79869819D02*
X72336779Y-78869819D01*
X72765350Y-79869819D02*
X72765350Y-79346009D01*
X72765350Y-79346009D02*
X72717731Y-79250771D01*
X72717731Y-79250771D02*
X72622493Y-79203152D01*
X72622493Y-79203152D02*
X72479636Y-79203152D01*
X72479636Y-79203152D02*
X72384398Y-79250771D01*
X72384398Y-79250771D02*
X72336779Y-79298390D01*
X73670112Y-79869819D02*
X73670112Y-79346009D01*
X73670112Y-79346009D02*
X73622493Y-79250771D01*
X73622493Y-79250771D02*
X73527255Y-79203152D01*
X73527255Y-79203152D02*
X73336779Y-79203152D01*
X73336779Y-79203152D02*
X73241541Y-79250771D01*
X73670112Y-79822200D02*
X73574874Y-79869819D01*
X73574874Y-79869819D02*
X73336779Y-79869819D01*
X73336779Y-79869819D02*
X73241541Y-79822200D01*
X73241541Y-79822200D02*
X73193922Y-79726961D01*
X73193922Y-79726961D02*
X73193922Y-79631723D01*
X73193922Y-79631723D02*
X73241541Y-79536485D01*
X73241541Y-79536485D02*
X73336779Y-79488866D01*
X73336779Y-79488866D02*
X73574874Y-79488866D01*
X73574874Y-79488866D02*
X73670112Y-79441247D01*
X74146303Y-79203152D02*
X74146303Y-79869819D01*
X74146303Y-79298390D02*
X74193922Y-79250771D01*
X74193922Y-79250771D02*
X74289160Y-79203152D01*
X74289160Y-79203152D02*
X74432017Y-79203152D01*
X74432017Y-79203152D02*
X74527255Y-79250771D01*
X74527255Y-79250771D02*
X74574874Y-79346009D01*
X74574874Y-79346009D02*
X74574874Y-79869819D01*
X75051065Y-79203152D02*
X75051065Y-79869819D01*
X75051065Y-79298390D02*
X75098684Y-79250771D01*
X75098684Y-79250771D02*
X75193922Y-79203152D01*
X75193922Y-79203152D02*
X75336779Y-79203152D01*
X75336779Y-79203152D02*
X75432017Y-79250771D01*
X75432017Y-79250771D02*
X75479636Y-79346009D01*
X75479636Y-79346009D02*
X75479636Y-79869819D01*
X76336779Y-79822200D02*
X76241541Y-79869819D01*
X76241541Y-79869819D02*
X76051065Y-79869819D01*
X76051065Y-79869819D02*
X75955827Y-79822200D01*
X75955827Y-79822200D02*
X75908208Y-79726961D01*
X75908208Y-79726961D02*
X75908208Y-79346009D01*
X75908208Y-79346009D02*
X75955827Y-79250771D01*
X75955827Y-79250771D02*
X76051065Y-79203152D01*
X76051065Y-79203152D02*
X76241541Y-79203152D01*
X76241541Y-79203152D02*
X76336779Y-79250771D01*
X76336779Y-79250771D02*
X76384398Y-79346009D01*
X76384398Y-79346009D02*
X76384398Y-79441247D01*
X76384398Y-79441247D02*
X75908208Y-79536485D01*
X76955827Y-79869819D02*
X76860589Y-79822200D01*
X76860589Y-79822200D02*
X76812970Y-79726961D01*
X76812970Y-79726961D02*
X76812970Y-78869819D01*
X78051066Y-78965057D02*
X78098685Y-78917438D01*
X78098685Y-78917438D02*
X78193923Y-78869819D01*
X78193923Y-78869819D02*
X78432018Y-78869819D01*
X78432018Y-78869819D02*
X78527256Y-78917438D01*
X78527256Y-78917438D02*
X78574875Y-78965057D01*
X78574875Y-78965057D02*
X78622494Y-79060295D01*
X78622494Y-79060295D02*
X78622494Y-79155533D01*
X78622494Y-79155533D02*
X78574875Y-79298390D01*
X78574875Y-79298390D02*
X78003447Y-79869819D01*
X78003447Y-79869819D02*
X78622494Y-79869819D01*
D11*
%TO.C,R2*%
X95645000Y-57924528D02*
X95645000Y-57470400D01*
X97115000Y-57924528D02*
X97115000Y-57470400D01*
%TO.C,J14*%
X47179000Y-82759000D02*
X48509000Y-82759000D01*
X47179000Y-84089000D02*
X47179000Y-82759000D01*
X47179000Y-85359000D02*
X47179000Y-90499000D01*
X47179000Y-85359000D02*
X49779000Y-85359000D01*
X47179000Y-90499000D02*
X52379000Y-90499000D01*
X49779000Y-82759000D02*
X52379000Y-82759000D01*
X49779000Y-85359000D02*
X49779000Y-82759000D01*
X52379000Y-82759000D02*
X52379000Y-90499000D01*
%TO.C,J18*%
X54268000Y-67564000D02*
G75*
G02*
X43268000Y-67564000I-5500000J0D01*
G01*
X43268000Y-67564000D02*
G75*
G02*
X54268000Y-67564000I5500000J0D01*
G01*
%TO.C,J11*%
X64850000Y-85239000D02*
X64850000Y-90379000D01*
X64850000Y-82639000D02*
X64850000Y-83969000D01*
X63520000Y-82639000D02*
X64850000Y-82639000D01*
X62250000Y-85239000D02*
X64850000Y-85239000D01*
X62250000Y-82639000D02*
X62250000Y-85239000D01*
X59650000Y-90379000D02*
X64850000Y-90379000D01*
X59650000Y-82639000D02*
X62250000Y-82639000D01*
X59650000Y-82639000D02*
X59650000Y-90379000D01*
%TO.C,J19*%
X81700000Y-67564000D02*
G75*
G02*
X70700000Y-67564000I-5500000J0D01*
G01*
X70700000Y-67564000D02*
G75*
G02*
X81700000Y-67564000I5500000J0D01*
G01*
%TO.C,J2*%
X30972000Y-83660000D02*
X16272000Y-83660000D01*
X30972000Y-68010000D02*
X30972000Y-83660000D01*
X23622000Y-83460000D02*
X24622000Y-82460000D01*
X23622000Y-83460000D02*
X22622000Y-82460000D01*
X16272000Y-83660000D02*
X16272000Y-68010000D01*
X16272000Y-68010000D02*
X30972000Y-68010000D01*
%TO.C,J4*%
X29130000Y-54630000D02*
X36870000Y-54630000D01*
X29130000Y-57230000D02*
X29130000Y-54630000D01*
X29130000Y-59830000D02*
X29130000Y-58500000D01*
X30460000Y-59830000D02*
X29130000Y-59830000D01*
X31730000Y-57230000D02*
X29130000Y-57230000D01*
X31730000Y-59830000D02*
X31730000Y-57230000D01*
X31730000Y-59830000D02*
X36870000Y-59830000D01*
X36870000Y-59830000D02*
X36870000Y-54630000D01*
%TO.C,J5*%
X86429000Y-54848464D02*
X94169000Y-54848464D01*
X86429000Y-57448464D02*
X86429000Y-54848464D01*
X86429000Y-60048464D02*
X86429000Y-58718464D01*
X87759000Y-60048464D02*
X86429000Y-60048464D01*
X89029000Y-57448464D02*
X86429000Y-57448464D01*
X89029000Y-60048464D02*
X89029000Y-57448464D01*
X89029000Y-60048464D02*
X94169000Y-60048464D01*
X94169000Y-60048464D02*
X94169000Y-54848464D01*
%TO.C,J17*%
X54014000Y-52324000D02*
G75*
G02*
X43014000Y-52324000I-5500000J0D01*
G01*
X43014000Y-52324000D02*
G75*
G02*
X54014000Y-52324000I5500000J0D01*
G01*
%TO.C,J8*%
X34960000Y-42930000D02*
X31810000Y-42930000D01*
X34960000Y-26830000D02*
X34960000Y-42930000D01*
X31810000Y-42930000D02*
X31810000Y-42170000D01*
X31810000Y-42170000D02*
X23110000Y-42170000D01*
X23110000Y-42930000D02*
X19960000Y-42930000D01*
X23110000Y-42170000D02*
X23110000Y-42930000D01*
X19960000Y-42930000D02*
X19960000Y-26830000D01*
X19960000Y-26830000D02*
X34960000Y-26830000D01*
%TO.C,C1*%
X34785252Y-61448000D02*
X34262748Y-61448000D01*
X34785252Y-62918000D02*
X34262748Y-62918000D01*
%TO.C,R1*%
X38488000Y-57383936D02*
X38488000Y-57838064D01*
X39958000Y-57383936D02*
X39958000Y-57838064D01*
%TO.C,J3*%
X108350000Y-83400000D02*
X93650000Y-83400000D01*
X108350000Y-67750000D02*
X108350000Y-83400000D01*
X101000000Y-83200000D02*
X102000000Y-82200000D01*
X101000000Y-83200000D02*
X100000000Y-82200000D01*
X93650000Y-83400000D02*
X93650000Y-67750000D01*
X93650000Y-67750000D02*
X108350000Y-67750000D01*
%TO.C,J9*%
X102960000Y-43430000D02*
X99810000Y-43430000D01*
X102960000Y-27330000D02*
X102960000Y-43430000D01*
X99810000Y-43430000D02*
X99810000Y-42670000D01*
X99810000Y-42670000D02*
X91110000Y-42670000D01*
X91110000Y-43430000D02*
X87960000Y-43430000D01*
X91110000Y-42670000D02*
X91110000Y-43430000D01*
X87960000Y-43430000D02*
X87960000Y-27330000D01*
X87960000Y-27330000D02*
X102960000Y-27330000D01*
%TO.C,J16*%
X72076000Y-82744000D02*
X73406000Y-82744000D01*
X72076000Y-84074000D02*
X72076000Y-82744000D01*
X72076000Y-85344000D02*
X72076000Y-90484000D01*
X72076000Y-85344000D02*
X74676000Y-85344000D01*
X72076000Y-90484000D02*
X77276000Y-90484000D01*
X74676000Y-82744000D02*
X77276000Y-82744000D01*
X74676000Y-85344000D02*
X74676000Y-82744000D01*
X77276000Y-82744000D02*
X77276000Y-90484000D01*
%TO.C,J12*%
X95769000Y-49028000D02*
X95769000Y-46368000D01*
X93169000Y-49028000D02*
X95769000Y-49028000D01*
X93169000Y-49028000D02*
X93169000Y-46368000D01*
X93169000Y-46368000D02*
X95769000Y-46368000D01*
X91899000Y-49028000D02*
X90569000Y-49028000D01*
X90569000Y-49028000D02*
X90569000Y-47698000D01*
%TO.C,J20*%
X81700000Y-52578000D02*
G75*
G02*
X70700000Y-52578000I-5500000J0D01*
G01*
X70700000Y-52578000D02*
G75*
G02*
X81700000Y-52578000I5500000J0D01*
G01*
%TO.C,J10*%
X25895000Y-49330000D02*
X25895000Y-48000000D01*
X27225000Y-49330000D02*
X25895000Y-49330000D01*
X28495000Y-46670000D02*
X31095000Y-46670000D01*
X28495000Y-49330000D02*
X28495000Y-46670000D01*
X28495000Y-49330000D02*
X31095000Y-49330000D01*
X31095000Y-49330000D02*
X31095000Y-46670000D01*
%TO.C,J7*%
X88447000Y-82759000D02*
X88447000Y-90499000D01*
X85847000Y-85359000D02*
X85847000Y-82759000D01*
X85847000Y-82759000D02*
X88447000Y-82759000D01*
X83247000Y-90499000D02*
X88447000Y-90499000D01*
X83247000Y-85359000D02*
X85847000Y-85359000D01*
X83247000Y-85359000D02*
X83247000Y-90499000D01*
X83247000Y-84089000D02*
X83247000Y-82759000D01*
X83247000Y-82759000D02*
X84577000Y-82759000D01*
%TO.C,C2*%
X92069252Y-61534464D02*
X91546748Y-61534464D01*
X92069252Y-63004464D02*
X91546748Y-63004464D01*
%TO.C,J15*%
X59905000Y-72395000D02*
X59905000Y-77595000D01*
X62505000Y-72395000D02*
X59905000Y-72395000D01*
X62505000Y-72395000D02*
X62505000Y-74995000D01*
X62505000Y-74995000D02*
X65105000Y-74995000D01*
X63775000Y-72395000D02*
X65105000Y-72395000D01*
X65105000Y-72395000D02*
X65105000Y-73725000D01*
X65105000Y-74995000D02*
X65105000Y-77595000D01*
X65105000Y-77595000D02*
X59905000Y-77595000D01*
%TO.C,J6*%
X40370000Y-82759000D02*
X40370000Y-90499000D01*
X37770000Y-85359000D02*
X37770000Y-82759000D01*
X37770000Y-82759000D02*
X40370000Y-82759000D01*
X35170000Y-90499000D02*
X40370000Y-90499000D01*
X35170000Y-85359000D02*
X37770000Y-85359000D01*
X35170000Y-85359000D02*
X35170000Y-90499000D01*
X35170000Y-84089000D02*
X35170000Y-82759000D01*
X35170000Y-82759000D02*
X36500000Y-82759000D01*
%TO.C,J13*%
X59650000Y-34499000D02*
X59650000Y-42239000D01*
X59650000Y-34499000D02*
X62250000Y-34499000D01*
X59650000Y-42239000D02*
X64850000Y-42239000D01*
X62250000Y-34499000D02*
X62250000Y-37099000D01*
X62250000Y-37099000D02*
X64850000Y-37099000D01*
X63520000Y-34499000D02*
X64850000Y-34499000D01*
X64850000Y-34499000D02*
X64850000Y-35829000D01*
X64850000Y-37099000D02*
X64850000Y-42239000D01*
%TO.C,J1*%
X41088000Y-14418000D02*
X79308000Y-14418000D01*
X41088000Y-17018000D02*
X41088000Y-14418000D01*
X41088000Y-19618000D02*
X41088000Y-18288000D01*
X42418000Y-19618000D02*
X41088000Y-19618000D01*
X43688000Y-17018000D02*
X41088000Y-17018000D01*
X43688000Y-19618000D02*
X43688000Y-17018000D01*
X43688000Y-19618000D02*
X79308000Y-19618000D01*
X79308000Y-19618000D02*
X79308000Y-14418000D01*
%TD*%
%LPC*%
D12*
X108880232Y-18026536D02*
G75*
G02*
X104479768Y-18026536I-2200232J0D01*
G01*
X104479768Y-18026536D02*
G75*
G02*
X108880232Y-18026536I2200232J0D01*
G01*
D13*
X63990062Y-59500000D02*
G75*
G02*
X60009938Y-59500000I-1990062J0D01*
G01*
X60009938Y-59500000D02*
G75*
G02*
X63990062Y-59500000I1990062J0D01*
G01*
D12*
X19980232Y-17772536D02*
G75*
G02*
X15579768Y-17772536I-2200232J0D01*
G01*
X15579768Y-17772536D02*
G75*
G02*
X19980232Y-17772536I2200232J0D01*
G01*
X22515232Y-60500000D02*
G75*
G02*
X18114768Y-60500000I-2200232J0D01*
G01*
X18114768Y-60500000D02*
G75*
G02*
X22515232Y-60500000I2200232J0D01*
G01*
X106700232Y-60000000D02*
G75*
G02*
X102299768Y-60000000I-2200232J0D01*
G01*
X102299768Y-60000000D02*
G75*
G02*
X106700232Y-60000000I2200232J0D01*
G01*
D14*
%TO.C,R2*%
X96380000Y-58609964D03*
X96380000Y-56784964D03*
%TD*%
D15*
%TO.C,J14*%
X48509000Y-84089000D03*
D16*
X51049000Y-84089000D03*
X48509000Y-86629000D03*
X51049000Y-86629000D03*
X48509000Y-89169000D03*
X51049000Y-89169000D03*
%TD*%
D17*
%TO.C,J18*%
X48768000Y-67564000D03*
%TD*%
D16*
%TO.C,J11*%
X60980000Y-89049000D03*
X63520000Y-89049000D03*
X60980000Y-86509000D03*
X63520000Y-86509000D03*
X60980000Y-83969000D03*
D15*
X63520000Y-83969000D03*
%TD*%
D17*
%TO.C,J19*%
X76200000Y-67564000D03*
%TD*%
D18*
%TO.C,J2*%
X21082000Y-69210000D03*
X23622000Y-71750000D03*
X26162000Y-69210000D03*
D19*
X23622000Y-69210000D03*
D20*
X18542000Y-78000000D03*
X28702000Y-78100000D03*
%TD*%
D15*
%TO.C,J4*%
X30460000Y-58500000D03*
D16*
X30460000Y-55960000D03*
X33000000Y-58500000D03*
X33000000Y-55960000D03*
X35540000Y-58500000D03*
X35540000Y-55960000D03*
%TD*%
D15*
%TO.C,J5*%
X87759000Y-58718464D03*
D16*
X87759000Y-56178464D03*
X90299000Y-58718464D03*
X90299000Y-56178464D03*
X92839000Y-58718464D03*
X92839000Y-56178464D03*
%TD*%
D17*
%TO.C,J17*%
X48514000Y-52324000D03*
%TD*%
D18*
%TO.C,J8*%
X30000000Y-34500000D03*
D19*
X27460000Y-34500000D03*
D21*
X32540000Y-29420000D03*
X22380000Y-39580000D03*
%TD*%
D22*
%TO.C,C1*%
X35474000Y-62183000D03*
X33574000Y-62183000D03*
%TD*%
D23*
%TO.C,R1*%
X39223000Y-56698500D03*
X39223000Y-58523500D03*
%TD*%
D18*
%TO.C,J3*%
X98460000Y-68950000D03*
X101000000Y-71490000D03*
X103540000Y-68950000D03*
D19*
X101000000Y-68950000D03*
D20*
X95920000Y-77740000D03*
X106080000Y-77840000D03*
%TD*%
D18*
%TO.C,J9*%
X98000000Y-35000000D03*
D19*
X95460000Y-35000000D03*
D21*
X100540000Y-29920000D03*
X90380000Y-40080000D03*
%TD*%
D15*
%TO.C,J16*%
X73406000Y-84074000D03*
D16*
X75946000Y-84074000D03*
X73406000Y-86614000D03*
X75946000Y-86614000D03*
X73406000Y-89154000D03*
X75946000Y-89154000D03*
%TD*%
%TO.C,J12*%
X94439000Y-47698000D03*
D15*
X91899000Y-47698000D03*
%TD*%
D17*
%TO.C,J20*%
X76200000Y-52578000D03*
%TD*%
D15*
%TO.C,J10*%
X27225000Y-48000000D03*
D16*
X29765000Y-48000000D03*
%TD*%
%TO.C,J7*%
X87117000Y-89169000D03*
X84577000Y-89169000D03*
X87117000Y-86629000D03*
X84577000Y-86629000D03*
X87117000Y-84089000D03*
D15*
X84577000Y-84089000D03*
%TD*%
D22*
%TO.C,C2*%
X92758000Y-62269464D03*
X90858000Y-62269464D03*
%TD*%
D15*
%TO.C,J15*%
X63775000Y-73725000D03*
D16*
X63775000Y-76265000D03*
X61235000Y-73725000D03*
X61235000Y-76265000D03*
%TD*%
%TO.C,J6*%
X39040000Y-89169000D03*
X36500000Y-89169000D03*
X39040000Y-86629000D03*
X36500000Y-86629000D03*
X39040000Y-84089000D03*
D15*
X36500000Y-84089000D03*
%TD*%
%TO.C,J13*%
X63520000Y-35829000D03*
D16*
X60980000Y-35829000D03*
X63520000Y-38369000D03*
X60980000Y-38369000D03*
X63520000Y-40909000D03*
X60980000Y-40909000D03*
%TD*%
D15*
%TO.C,J1*%
X42418000Y-18288000D03*
D16*
X42418000Y-15748000D03*
X44958000Y-18288000D03*
X44958000Y-15748000D03*
X47498000Y-18288000D03*
X47498000Y-15748000D03*
X50038000Y-18288000D03*
X50038000Y-15748000D03*
X52578000Y-18288000D03*
X52578000Y-15748000D03*
X55118000Y-18288000D03*
X55118000Y-15748000D03*
X57658000Y-18288000D03*
X57658000Y-15748000D03*
X60198000Y-18288000D03*
X60198000Y-15748000D03*
X62738000Y-18288000D03*
X62738000Y-15748000D03*
X65278000Y-18288000D03*
X65278000Y-15748000D03*
X67818000Y-18288000D03*
X67818000Y-15748000D03*
X70358000Y-18288000D03*
X70358000Y-15748000D03*
X72898000Y-18288000D03*
X72898000Y-15748000D03*
X75438000Y-18288000D03*
X75438000Y-15748000D03*
X77978000Y-18288000D03*
X77978000Y-15748000D03*
%TD*%
%LPD*%
M02*
